<svg width="20" height="20" viewBox="0 0 20 20" fill="none" xmlns="http://www.w3.org/2000/svg">
<path fill-rule="evenodd" clip-rule="evenodd" d="M14.5469 7.39917C14.0377 7.1139 13.4674 6.95499 12.8841 6.93581C12.3007 6.91662 11.7213 7.03772 11.1944 7.28892L11.0149 7.37442C10.6481 7.54924 10.3067 7.77294 9.99989 8.03942C9.69313 7.77294 9.3517 7.54924 8.98489 7.37442L8.80539 7.28892C8.02165 6.91529 7.13034 6.83349 6.29169 7.05822C5.45303 7.28295 4.72205 7.79947 4.23014 8.51492L4.11764 8.67867C3.7916 9.15274 3.55949 9.68493 3.43389 10.2464L3.37614 10.5049C3.23623 11.1314 3.19991 11.7765 3.26864 12.4147L3.30314 12.7362C3.36939 13.3517 3.53064 13.9532 3.78064 14.5192L3.91164 14.8152C4.17131 15.4022 4.52542 15.9427 4.95989 16.4152L5.13889 16.6102C5.52841 17.0336 5.99551 17.3784 6.51489 17.6259L6.69439 17.7117C7.2131 17.9589 7.78287 18.0801 8.3573 18.0654C8.93172 18.0506 9.49454 17.9004 9.99989 17.6269C10.5053 17.9004 11.0681 18.0506 11.6425 18.0653C12.2169 18.0799 12.7867 17.9587 13.3054 17.7114L13.4849 17.6259C14.0042 17.3783 14.4712 17.0334 14.8606 16.6099L15.0399 16.4152C15.4744 15.9427 15.8285 15.4022 16.0881 14.8152L16.2189 14.5192C16.4691 13.953 16.6301 13.3516 16.6964 12.7362L16.7314 12.4147C16.8001 11.7764 16.7639 11.1312 16.6236 10.5047L16.5659 10.2464C16.4403 9.68504 16.2083 9.15293 15.8824 8.67892L15.7696 8.51492C15.4529 8.05427 15.0345 7.67254 14.5469 7.39917Z" fill="#F4F4C5"/>
<path d="M10 8.03942L9.672 8.41692L10 8.70217L10.328 8.41717L10 8.03942ZM10 17.6269L10.238 17.1874L10 17.0587L9.762 17.1874L10 17.6269ZM12.8048 7.43417C13.3298 7.44092 13.8447 7.57892 14.3025 7.83542L14.7913 6.96317C14.1877 6.62518 13.5092 6.44317 12.8175 6.43417L12.8048 7.43417ZM11.4097 7.74017C11.8452 7.53272 12.3225 7.42803 12.8048 7.43417L12.8175 6.43417C12.1819 6.42613 11.553 6.56418 10.9792 6.83767L11.4097 7.74017ZM11.23 7.82592L11.4097 7.74017L10.9792 6.83767L10.7998 6.92317L11.23 7.82592ZM10.328 8.41717C10.6006 8.18027 10.904 7.98138 11.23 7.82592L10.7998 6.92317C10.3923 7.11748 10.0132 7.36607 9.6725 7.66217L10.328 8.41717ZM8.76975 7.82592C9.0959 7.98134 9.3995 8.18024 9.67225 8.41717L10.328 7.66217C9.98717 7.36605 9.60781 7.11746 9.20025 6.92317L8.76975 7.82592ZM8.59025 7.74017L8.76975 7.82592L9.20025 6.92342L9.0205 6.83767L8.59025 7.74017ZM7.19525 7.43417C7.67755 7.42803 8.15481 7.53272 8.59025 7.74017L9.0205 6.83767C8.44666 6.56414 7.8179 6.42609 7.18225 6.43417L7.19525 7.43417ZM5.6975 7.83542C6.15544 7.57901 6.67045 7.44108 7.19525 7.43417L7.18225 6.43417C6.49044 6.4432 5.81212 6.62505 5.2085 6.96317L5.6975 7.83542ZM4.64225 8.79817C4.91559 8.4008 5.27654 8.07151 5.69725 7.83567L5.2085 6.96317C4.65406 7.27396 4.17841 7.70796 3.81825 8.23167L4.64225 8.79817ZM4.52975 8.96192L4.64225 8.79817L3.81825 8.23167L3.70575 8.39542L4.52975 8.96192ZM3.922 10.3557C4.03356 9.85661 4.23979 9.38357 4.5295 8.96217L3.7055 8.39542C3.3433 8.9222 3.08548 9.51354 2.946 10.1374L3.922 10.3557ZM3.86425 10.6139L3.922 10.3557L2.946 10.1374L2.8885 10.3957L3.86425 10.6139ZM3.76575 12.3609C3.70291 11.777 3.73619 11.187 3.86425 10.6139L2.8885 10.3957C2.73662 11.0755 2.69693 11.7756 2.7715 12.4682L3.76575 12.3609ZM3.80025 12.6827L3.76575 12.3609L2.7715 12.4682L2.806 12.7899L3.80025 12.6827ZM4.23825 14.3172C4.00881 13.7982 3.86106 13.2468 3.80025 12.6827L2.806 12.7899C2.87784 13.4566 3.05241 14.1081 3.3235 14.7214L4.23825 14.3172ZM4.369 14.6129L4.23825 14.3169L3.32375 14.7214L3.45425 15.0172L4.369 14.6129ZM5.328 16.0767C4.93052 15.6444 4.60656 15.15 4.369 14.6129L3.45425 15.0172C3.73599 15.6543 4.1205 16.2409 4.592 16.7537L5.328 16.0767ZM5.50725 16.2717L5.328 16.0767L4.592 16.7537L4.771 16.9487L5.50725 16.2717ZM6.73 17.1747C6.26836 16.9546 5.85344 16.6481 5.50725 16.2717L4.771 16.9487C5.20374 17.4192 5.7227 17.8021 6.29975 18.0772L6.73 17.1747ZM6.9095 17.2602L6.73 17.1747L6.29975 18.0772L6.47925 18.1629L6.9095 17.2602ZM8.30475 17.5662C7.82244 17.5722 7.34492 17.4677 6.9095 17.2602L6.47925 18.1629C7.05309 18.4365 7.6821 18.5743 8.31775 18.5662L8.30475 17.5662ZM9.762 17.1874C9.31396 17.4297 8.81408 17.5595 8.30475 17.5662L8.31775 18.5662C8.98874 18.5573 9.64757 18.386 10.2378 18.0667L9.762 17.1874ZM11.6952 17.5662C11.1859 17.5595 10.686 17.4297 10.238 17.1874L9.762 18.0667C10.3523 18.386 11.0112 18.5574 11.6823 18.5662L11.6952 17.5662ZM13.0903 17.2602C12.6548 17.4676 12.1775 17.5723 11.6952 17.5662L11.6823 18.5662C12.3179 18.5743 12.9466 18.4364 13.5205 18.1629L13.0903 17.2602ZM13.2697 17.1747L13.0903 17.2602L13.5208 18.1627L13.7002 18.0772L13.2697 17.1747ZM14.4928 16.2717C14.1466 16.6481 13.7314 16.9546 13.2697 17.1747L13.7002 18.0772C14.2772 17.8021 14.7961 17.4189 15.2288 16.9484L14.4928 16.2717ZM14.672 16.0767L14.4928 16.2717L15.2288 16.9484L15.408 16.7537L14.672 16.0767ZM15.6307 14.6129C15.3933 15.1499 15.0694 15.6444 14.672 16.0767L15.408 16.7537C15.8795 16.2409 16.2638 15.6543 16.5455 15.0172L15.6307 14.6129ZM15.7615 14.3169L15.6307 14.6129L16.5455 15.0172L16.6763 14.7214L15.7615 14.3169ZM16.1995 12.6827C16.1387 13.2467 15.9908 13.798 15.7615 14.3169L16.6763 14.7214C16.9473 14.1081 17.1222 13.4566 17.194 12.7899L16.1995 12.6827ZM16.2342 12.3609L16.1995 12.6827L17.194 12.7899L17.2285 12.4682L16.2342 12.3609ZM16.1357 10.6139C16.264 11.1869 16.2972 11.7772 16.2342 12.3609L17.2285 12.4682C17.3033 11.7754 17.2635 11.0754 17.1115 10.3957L16.1357 10.6139ZM16.078 10.3557L16.1357 10.6139L17.1115 10.3957L17.054 10.1374L16.078 10.3557ZM15.4703 8.96192C15.76 9.3834 15.9665 9.85652 16.078 10.3557L17.0537 10.1374C16.9143 9.51354 16.6565 8.9222 16.2943 8.39542L15.4703 8.96192ZM15.3577 8.79817L15.4703 8.96192L16.2943 8.39542L16.1817 8.23167L15.3577 8.79817ZM14.3027 7.83567C14.7235 8.07151 15.0844 8.4008 15.3577 8.79817L16.1817 8.23167C15.8215 7.70793 15.3458 7.27393 14.7913 6.96317L14.3027 7.83567Z" fill="#F4F4C5"/>
<path fill-rule="evenodd" clip-rule="evenodd" d="M13.0255 2.34271C13.0798 2.53846 13.114 2.73971 13.1273 2.94371L13.1298 2.98271C13.1541 3.36144 13.1032 3.74124 12.98 4.10021L12.9615 4.15471C12.8392 4.51096 12.6479 4.83969 12.3988 5.12221L12.3703 5.15446C12.1151 5.44339 11.8058 5.6795 11.4598 5.84946C11.0995 6.02663 10.7079 6.13152 10.3073 6.15821C9.99336 6.17903 9.6781 6.14992 9.37329 6.07196C9.28286 5.75577 9.24734 5.42641 9.26829 5.09821L9.27104 5.05946C9.29654 4.66846 9.39854 4.28821 9.57179 3.93671L9.58929 3.90171C9.75808 3.56188 9.99191 3.25848 10.2775 3.00871L10.3208 2.97071C10.605 2.72345 10.935 2.53446 11.292 2.41446L11.3328 2.40046C11.6982 2.27787 12.0842 2.2281 12.4688 2.25396C12.6568 2.26646 12.8433 2.29621 13.0255 2.34271Z" fill="#F4F4C5"/>
<path d="M13.0256 2.34261L13.5351 2.22761L13.4613 1.96186L13.1688 1.88686L13.0256 2.34261ZM9.37331 6.07186L8.86456 6.18936L8.93931 6.45211L9.22856 6.52711L9.37331 6.07186ZM12.5161 2.45736C12.5623 2.62436 12.5916 2.79661 12.6031 2.97161L13.6516 2.91586C13.6364 2.68313 13.5974 2.45259 13.5351 2.22786L12.5161 2.45736ZM12.6031 2.97161L12.6056 3.01036L13.6543 2.95461L13.6516 2.91586L12.6031 2.97161ZM12.6056 3.01036C12.6262 3.33274 12.5829 3.65603 12.4781 3.96161L13.4826 4.23861C13.6243 3.82161 13.6823 3.38636 13.6543 2.95461L12.6056 3.01036ZM12.4781 3.96161L12.4596 4.01611L13.4638 4.29311L13.4826 4.23861L12.4781 3.96161ZM12.4596 4.01611C12.3571 4.31545 12.1964 4.59158 11.9868 4.82861L12.8108 5.41561C13.1001 5.088 13.322 4.70656 13.4638 4.29311L12.4596 4.01611ZM11.9868 4.82861L11.9583 4.86061L12.7823 5.44811L12.8108 5.41561L11.9868 4.82861ZM11.9583 4.86061C11.7481 5.09903 11.4931 5.2938 11.2078 5.43386L11.7121 6.26461C12.119 6.06528 12.4827 5.788 12.7823 5.44811L11.9583 4.86061ZM11.2078 5.43386C10.9144 5.57846 10.5955 5.66408 10.2691 5.68586L10.3453 6.63036C10.8205 6.59939 11.2849 6.47511 11.7121 6.26461L11.2078 5.43386ZM10.2691 5.68586C10.0166 5.703 9.76312 5.67971 9.51806 5.61686L9.22856 6.52711C9.58956 6.62036 9.96731 6.65511 10.3453 6.63036L10.2691 5.68586ZM9.88231 5.95436C9.80541 5.68541 9.77514 5.40527 9.79281 5.12611L8.74431 5.07036C8.71956 5.44536 8.76056 5.82311 8.86456 6.18936L9.88231 5.95436ZM9.79281 5.12611L9.79531 5.08736L8.74681 5.03136L8.74431 5.07036L9.79281 5.12611ZM9.79531 5.08736C9.81731 4.75186 9.90456 4.42736 10.0518 4.12886L9.09181 3.74436C8.89305 4.1464 8.7758 4.5838 8.74681 5.03136L9.79531 5.08736ZM10.0518 4.12886L10.0693 4.09411L9.10931 3.70936L9.09181 3.74436L10.0518 4.12886ZM10.0693 4.09411C10.2097 3.80995 10.4049 3.55615 10.6438 3.34786L9.91131 2.66936C9.57846 2.96016 9.30596 3.31352 9.10931 3.70936L10.0693 4.09411ZM10.6438 3.34786L10.6871 3.30986L9.95456 2.63136L9.91131 2.66936L10.6438 3.34786ZM10.6871 3.30986C10.918 3.10844 11.1865 2.95465 11.4771 2.85736L11.1071 1.97136C10.6832 2.11346 10.2916 2.33773 9.95456 2.63136L10.6871 3.30986ZM11.4771 2.85736L11.5178 2.84361L11.1478 1.95736L11.1068 1.97136L11.4771 2.85736ZM11.5178 2.84361C11.8113 2.74467 12.1215 2.70473 12.4306 2.72611L12.5068 1.78161C12.0466 1.75069 11.585 1.81041 11.1478 1.95736L11.5178 2.84361ZM12.4306 2.72611C12.583 2.73625 12.7342 2.76035 12.8823 2.79811L13.1688 1.88686C12.9519 1.83132 12.7303 1.79625 12.5068 1.78161L12.4306 2.72611Z" fill="#F4F4C5"/>
</svg>
