<svg width="48" height="48" viewBox="0 0 48 48" fill="none" xmlns="http://www.w3.org/2000/svg">
<rect width="48" height="48" rx="24" fill="#90D732"/>
<path d="M28.5204 15.7683C28.6097 15.6738 28.6795 15.5627 28.7258 15.4412C28.7721 15.3198 28.7941 15.1904 28.7904 15.0604C28.7867 14.9305 28.7575 14.8026 28.7044 14.6839C28.6513 14.5653 28.5753 14.4583 28.4808 14.369C28.3864 14.2798 28.2752 14.21 28.1538 14.1636C28.0323 14.1173 27.903 14.0954 27.773 14.099C27.6431 14.1027 27.5152 14.1319 27.3965 14.1851C27.2779 14.2382 27.1709 14.3141 27.0816 14.4086L18.6704 23.3146C18.4967 23.4983 18.3999 23.7416 18.3999 23.9944C18.3999 24.2473 18.4967 24.4905 18.6704 24.6743L27.0816 33.5812C27.1703 33.6778 27.2773 33.7557 27.3963 33.8106C27.5154 33.8654 27.6442 33.8961 27.7752 33.9007C27.9062 33.9054 28.0369 33.884 28.1595 33.8377C28.2822 33.7914 28.3944 33.7213 28.4897 33.6313C28.5851 33.5413 28.6615 33.4332 28.7147 33.3134C28.7679 33.1936 28.7968 33.0644 28.7997 32.9333C28.8025 32.8023 28.7793 32.6719 28.7314 32.5499C28.6834 32.4279 28.6117 32.3166 28.5204 32.2226L20.7504 23.9944L28.5204 15.7683Z" fill="white"/>
</svg>
