<svg width="48" height="48" viewBox="0 0 48 48" fill="none" xmlns="http://www.w3.org/2000/svg">
<rect width="48" height="48" rx="24" transform="matrix(-1 0 0 1 48 0)" fill="#90D732"/>
<path d="M19.4796 15.7683C19.3903 15.6738 19.3205 15.5627 19.2742 15.4412C19.2279 15.3198 19.2059 15.1904 19.2096 15.0604C19.2133 14.9305 19.2425 14.8026 19.2956 14.6839C19.3487 14.5653 19.4247 14.4583 19.5192 14.369C19.6136 14.2798 19.7248 14.21 19.8462 14.1636C19.9677 14.1173 20.097 14.0954 20.227 14.099C20.3569 14.1027 20.4848 14.1319 20.6035 14.1851C20.7221 14.2382 20.8291 14.3141 20.9184 14.4086L29.3296 23.3146C29.5033 23.4983 29.6001 23.7416 29.6001 23.9944C29.6001 24.2473 29.5033 24.4905 29.3296 24.6743L20.9184 33.5812C20.8297 33.6778 20.7227 33.7557 20.6037 33.8106C20.4846 33.8654 20.3558 33.8961 20.2248 33.9007C20.0938 33.9054 19.9631 33.884 19.8405 33.8377C19.7178 33.7914 19.6056 33.7213 19.5103 33.6313C19.4149 33.5413 19.3385 33.4332 19.2853 33.3134C19.2321 33.1936 19.2032 33.0644 19.2003 32.9333C19.1975 32.8023 19.2207 32.6719 19.2686 32.5499C19.3166 32.4279 19.3883 32.3166 19.4796 32.2226L27.2496 23.9944L19.4796 15.7683Z" fill="white"/>
</svg>
