<svg width="60" height="60" viewBox="0 0 60 60" fill="none" xmlns="http://www.w3.org/2000/svg">
<path d="M11.25 7.5C15.5724 7.49912 19.7625 8.99169 23.1109 11.7251C26.4593 14.4585 28.7605 18.2649 29.625 22.5H30C30 18.5218 31.5804 14.7064 34.3934 11.8934C37.2064 9.08035 41.0218 7.5 45 7.5H56.25C56.25 9.96229 55.765 12.4005 54.8227 14.6753C53.8805 16.9502 52.4994 19.0172 50.7583 20.7583C47.2419 24.2746 42.4728 26.25 37.5 26.25H33.75V52.5H26.25V26.25H18.75C14.7718 26.25 10.9564 24.6696 8.1434 21.8566C5.33035 19.0436 3.75 15.2282 3.75 11.25V7.5H11.25Z" fill="#8FBF4F"/>
</svg>
