<svg width="30" height="30" viewBox="0 0 30 30" fill="none" xmlns="http://www.w3.org/2000/svg">
<g clip-path="url(#clip0_211_49)">
<rect width="30" height="30" rx="6" fill="white" fill-opacity="0.2"/>
<path d="M22.1338 6.01562C24.1666 6.01579 25.8289 7.67811 25.8291 9.71094V18.6328C25.8291 20.6588 24.1736 22.3222 22.1406 22.3223H17.0127L16.1387 23.8311L15.2793 25.3193C15.1185 25.5913 14.728 25.5914 14.5742 25.3193L13.7148 23.8311L12.8418 22.3223H7.76953C5.74345 22.3223 4.08008 20.6659 4.08008 18.6328V9.7041C4.08016 7.67809 5.73651 6.01562 7.76953 6.01562H22.1338ZM20.3311 12.5615C19.3042 12.5615 18.4729 13.4208 18.4727 14.4756C18.4727 15.5305 19.304 16.3906 20.3311 16.3906C20.7572 16.3906 21.1487 16.2435 21.4561 15.999V16.5303C21.4541 16.5394 21.3371 17.0537 20.5615 17.0537V18.0391C20.566 18.0396 21.4087 18.135 22.1611 17.3828C22.1611 17.3828 22.5109 17.0124 22.5879 16.5234V12.6387H21.4561V12.9531C21.1417 12.7086 20.7502 12.5616 20.3311 12.5615ZM7.32227 16.4326H8.43945V16.0762C8.75385 16.3556 9.15262 16.5303 9.59277 16.5303C10.5918 16.5302 11.4023 15.6428 11.4023 14.5459C11.4023 13.449 10.5988 12.5547 9.59277 12.5547C9.15961 12.5547 8.75385 12.7223 8.43945 13.0088V11.3672H7.32227V16.4326ZM15.957 12.5547C14.8463 12.5549 13.9453 13.4423 13.9453 14.5391C13.9454 15.6358 14.8464 16.5233 15.957 16.5234C17.0678 16.5234 17.9696 15.6359 17.9697 14.5391C17.9697 13.4422 17.0749 12.5547 15.957 12.5547ZM11.5283 11.2695V12.2822C11.543 12.2843 12.0462 12.3598 12.1426 12.8555V16.4326H13.2959V12.8271C13.226 12.3241 12.9248 11.9473 12.9248 11.9473C12.2757 11.1808 11.5452 11.2674 11.5283 11.2695ZM9.36914 13.5469C9.92805 13.5469 10.375 13.9871 10.375 14.5391C10.3749 15.0909 9.928 15.5312 9.36914 15.5312C8.95694 15.5312 8.60097 15.286 8.44727 14.9297C8.39844 14.811 8.36331 14.6786 8.36328 14.5391C8.36328 14.3993 8.39137 14.2662 8.44727 14.1475C8.60104 13.7913 8.95706 13.5469 9.36914 13.5469ZM15.957 13.5889C16.488 13.5889 16.9219 14.0151 16.9219 14.5391C16.9218 15.063 16.4949 15.4893 15.957 15.4893C15.4263 15.4891 14.9932 15.0629 14.9932 14.5391C14.9932 14.0152 15.4262 13.589 15.957 13.5889ZM20.541 13.4912C20.939 13.4914 21.2884 13.7149 21.4561 14.0361C21.5258 14.1687 21.5605 14.3153 21.5605 14.4688C21.5605 14.6224 21.5189 14.7766 21.4561 14.9023C21.2884 15.2306 20.939 15.4471 20.541 15.4473C19.9751 15.4473 19.5205 15.0067 19.5205 14.4688C19.5207 13.9309 19.9822 13.4912 20.541 13.4912Z" fill="white"/>
</g>
<defs>
<clipPath id="clip0_211_49">
<rect width="30" height="30" rx="6" fill="white"/>
</clipPath>
</defs>
</svg>
