<svg width="40" height="40" viewBox="0 0 40 40" fill="none" xmlns="http://www.w3.org/2000/svg">
<path d="M36 6C36 12.7563 31.2125 18.3938 24.85 19.7125C24.3563 16.0813 22.725 12.8125 20.3188 10.2813C22.825 6.5 27.1188 4 32 4H34C35.1063 4 36 4.89375 36 6ZM4 10C4 8.89375 4.89375 8 6 8H8C15.7313 8 22 14.2688 22 22V34C22 35.1063 21.1063 36 20 36C18.8938 36 18 35.1063 18 34V24C10.2688 24 4 17.7313 4 10Z" fill="#61C200"/>
<ellipse cx="30.8884" cy="7.25379" rx="1.70658" ry="1.10676" transform="rotate(1.54026 30.8884 7.25379)" fill="white"/>
</svg>
