<svg width="20" height="20" viewBox="0 0 20 20" fill="none" xmlns="http://www.w3.org/2000/svg">
<path d="M13.8233 4.3259L13.8717 4.3634L13.9367 4.42507L13.9967 4.49507L14.0075 4.51007C14.1347 4.68472 14.1891 4.90194 14.1592 5.1159L14.1408 5.2084L14.1158 5.28507C13.2908 7.5559 13.5608 9.58341 14.6817 11.7067C15.3043 11.8041 15.8865 12.076 16.3609 12.4908C16.8353 12.9056 17.1824 13.4464 17.3619 14.0505C17.5414 14.6546 17.546 15.2972 17.3752 15.9037C17.2043 16.5103 16.865 17.056 16.3966 17.4776C15.9282 17.8992 15.3499 18.1794 14.7288 18.2856C14.1076 18.3919 13.4691 18.3199 12.8872 18.078C12.3053 17.8361 11.8039 17.4343 11.4411 16.919C11.0783 16.4037 10.869 15.7961 10.8375 15.1667L10.8333 15.0001L10.8375 14.8334C10.8692 14.1977 11.0822 13.5844 11.4514 13.0659C11.8206 12.5474 12.3305 12.1455 12.9208 11.9076C12.1317 10.2159 11.8025 8.52007 12.0442 6.73507C11.9058 6.79952 11.7672 6.86007 11.6283 6.91674L11.7067 6.86341C9.8375 8.08841 8.74667 9.36674 8.39 10.6717C8.91337 11.0356 9.33534 11.527 9.61604 12.0993C9.89675 12.6716 10.0269 13.3061 9.99427 13.9427C9.96162 14.5793 9.76723 15.1971 9.42945 15.7377C9.09167 16.2783 8.62166 16.7239 8.0638 17.0323C7.50595 17.3408 6.87867 17.502 6.24122 17.5006C5.60376 17.4992 4.97718 17.3354 4.42064 17.0246C3.8641 16.7137 3.39599 16.2662 3.06051 15.7241C2.72504 15.1821 2.53327 14.5635 2.50333 13.9267L2.5 13.7501L2.50417 13.5734C2.52894 13.0467 2.66451 12.5311 2.90203 12.0604C3.13955 11.5896 3.47368 11.1742 3.88261 10.8414C4.29153 10.5085 4.76606 10.2656 5.27522 10.1285C5.78438 9.99145 6.31672 9.9633 6.8375 10.0459C7.11417 9.15174 7.625 8.29924 8.3625 7.48841C6.8675 7.40841 5.37417 6.8559 3.9 5.8334L3.67667 5.67507L3.63417 5.64174L3.59583 5.6084L3.55917 5.57174L3.52583 5.5334L3.4925 5.49174L3.46583 5.45257L3.43667 5.40257L3.3925 5.31091L3.36083 5.21424L3.34167 5.11674L3.3375 5.08174L3.33333 4.9834L3.34167 4.88507L3.36083 4.78757L3.3925 4.69174L3.4175 4.63674L3.43667 4.59924L3.46583 4.54924L3.4925 4.51091L3.52583 4.4684L3.55917 4.43007L3.59583 4.3934L3.63417 4.36007L3.67583 4.32674C7.02417 1.89174 10.4758 1.89091 13.8233 4.3259Z" fill="#F4F4C5"/>
</svg>
