<svg width="25" height="25" viewBox="0 0 25 25" fill="none" xmlns="http://www.w3.org/2000/svg">
<path d="M19.3231 1.73223C20.2994 0.755924 21.8829 0.755928 22.8592 1.73223C23.8355 2.70854 23.8355 4.29206 22.8592 5.26837L15.8309 12.2957L22.8582 19.3231C23.8345 20.2994 23.8345 21.8819 22.8582 22.8582C21.8819 23.8345 20.2994 23.8345 19.3231 22.8582L12.2957 15.8309L5.26837 22.8582C4.29205 23.8345 2.70952 23.8345 1.73321 22.8582C0.756904 21.8819 0.7569 20.2994 1.73321 19.3231L8.75958 12.2957L1.73223 5.26837C0.755922 4.29206 0.755923 2.70854 1.73223 1.73223C2.70854 0.755922 4.29205 0.755922 5.26837 1.73223L12.2957 8.75958L19.3231 1.73223Z" fill="white"/>
<path d="M19.3231 1.73223L18.6159 1.02513L19.3231 1.73223ZM22.8592 1.73223L23.5663 1.02513L23.5663 1.02512L22.8592 1.73223ZM22.8592 5.26837L23.5662 5.97552L23.5663 5.97547L22.8592 5.26837ZM15.8309 12.2957L15.1238 11.5886L14.4166 12.2957L15.1238 13.0028L15.8309 12.2957ZM22.8582 22.8582L23.5653 23.5653V23.5653L22.8582 22.8582ZM12.2957 15.8309L13.0028 15.1238L12.2957 14.4167L11.5886 15.1238L12.2957 15.8309ZM1.73321 22.8582L1.0261 23.5653L1.0261 23.5653L1.73321 22.8582ZM1.73321 19.3231L2.44032 20.0302L2.44037 20.0301L1.73321 19.3231ZM8.75958 12.2957L9.46673 13.0028L10.1737 12.2957L9.46668 11.5886L8.75958 12.2957ZM1.73223 1.73223L1.02513 1.02513L1.02513 1.02513L1.73223 1.73223ZM12.2957 8.75958L11.5886 9.46668L12.2957 10.1738L13.0028 9.46668L12.2957 8.75958ZM19.3231 1.73223L20.0302 2.43934C20.6159 1.85356 21.5663 1.85356 22.1521 2.43934L22.8592 1.73223L23.5663 1.02512C22.1995 -0.3417 19.9828 -0.341709 18.6159 1.02513L19.3231 1.73223ZM22.8592 1.73223L22.1521 2.43934C22.7379 3.02513 22.7379 3.97547 22.1521 4.56126L22.8592 5.26837L23.5663 5.97547C24.9331 4.60864 24.9331 2.39196 23.5663 1.02513L22.8592 1.73223ZM22.8592 5.26837L22.1521 4.56121L15.1238 11.5886L15.8309 12.2957L16.5379 13.0029L23.5662 5.97552L22.8592 5.26837ZM15.8309 12.2957L15.1238 13.0028L22.1511 20.0302L22.8582 19.3231L23.5653 18.6159L16.538 11.5886L15.8309 12.2957ZM22.8582 19.3231L22.1511 20.0302C22.7369 20.6159 22.7369 21.5653 22.1511 22.1511L22.8582 22.8582L23.5653 23.5653C24.9322 22.1985 24.9322 19.9828 23.5653 18.6159L22.8582 19.3231ZM22.8582 22.8582L22.1511 22.1511C21.5653 22.7369 20.6159 22.7369 20.0302 22.1511L19.3231 22.8582L18.6159 23.5653C19.9828 24.9322 22.1985 24.9321 23.5653 23.5653L22.8582 22.8582ZM19.3231 22.8582L20.0302 22.1511L13.0028 15.1238L12.2957 15.8309L11.5886 16.538L18.6159 23.5653L19.3231 22.8582ZM12.2957 15.8309L11.5886 15.1238L4.56126 22.1511L5.26837 22.8582L5.97547 23.5653L13.0028 16.538L12.2957 15.8309ZM5.26837 22.8582L4.56126 22.1511C3.97547 22.7369 3.0261 22.7369 2.44032 22.1511L1.73321 22.8582L1.0261 23.5653C2.39294 24.9322 4.60864 24.9322 5.97547 23.5653L5.26837 22.8582ZM1.73321 22.8582L2.44032 22.1511C1.85453 21.5653 1.85453 20.6159 2.44032 20.0302L1.73321 19.3231L1.0261 18.6159C-0.340733 19.9828 -0.340724 22.1985 1.0261 23.5653L1.73321 22.8582ZM1.73321 19.3231L2.44037 20.0301L9.46673 13.0028L8.75958 12.2957L8.05242 11.5887L1.02605 18.616L1.73321 19.3231ZM8.75958 12.2957L9.46668 11.5886L2.43934 4.56126L1.73223 5.26837L1.02513 5.97547L8.05247 13.0028L8.75958 12.2957ZM1.73223 5.26837L2.43934 4.56126C1.85355 3.97547 1.85355 3.02513 2.43934 2.43934L1.73223 1.73223L1.02513 1.02513C-0.341708 2.39196 -0.341709 4.60864 1.02513 5.97547L1.73223 5.26837ZM1.73223 1.73223L2.43934 2.43934C3.02513 1.85355 3.97547 1.85355 4.56126 2.43934L5.26837 1.73223L5.97547 1.02513C4.60864 -0.341709 2.39196 -0.341709 1.02513 1.02513L1.73223 1.73223ZM5.26837 1.73223L4.56126 2.43934L11.5886 9.46668L12.2957 8.75958L13.0028 8.05247L5.97547 1.02513L5.26837 1.73223ZM12.2957 8.75958L13.0028 9.46668L20.0302 2.43934L19.3231 1.73223L18.6159 1.02513L11.5886 8.05247L12.2957 8.75958Z" fill="white"/>
</svg>
