<svg width="1920" height="300" viewBox="0 0 1920 300" fill="none" xmlns="http://www.w3.org/2000/svg">
<path d="M-78.7553 279.297C-65.2266 264.15 -31.9965 234.218 -7.30654 235.661C2.84003 215.105 39.6214 177.888 105.574 193.467C125.585 171.228 186.155 139.229 268.342 189.14C288.635 187.217 332.181 187.77 344.019 205.368C350.501 190.943 373.528 162.382 413.776 163.536C430.405 138.051 482.857 90.7607 559.633 105.474C599.797 77.5859 699.064 38.5421 774.825 105.474C790.75 103.07 826.911 100.353 844.16 108.72C861.353 79.7494 918.519 24.4619 1009.5 42.0605C1009.5 42.0605 1013.44 43.4378 1013.76 43.7461C1050.88 10.6926 1153.45 -35.483 1267.36 43.8068C1306.53 37.1954 1393.34 40.9943 1427.17 109.081C1433.93 109.081 1496.5 119.9 1506.22 158.487C1538.35 139.374 1617.24 113.769 1675.76 164.257C1702.67 161.612 1762.17 166.565 1784.83 207.532C1785.73 209.16 1786.58 210.69 1787.37 212.126C1806.04 214.399 1840.42 225.146 1846.56 252.971C1867.27 245.038 1914.71 235.661 1938.72 261.627C1945.06 260.304 1963.41 259.463 1986.07 266.675C2008.73 273.888 2026.8 288.914 2033 295.526V1808H-113L-78.7553 279.297Z" fill="#66AA41"/>
</svg>
