<svg width="827" height="89" viewBox="0 0 827 89" fill="none" xmlns="http://www.w3.org/2000/svg">
<path d="M27 82H798" stroke="#96C470" stroke-width="4" stroke-linecap="round"/>
<path d="M44.7291 10.1534L46.02 7.69106C45.621 7.48312 45.1775 7.37451 44.7273 7.37451C44.2771 7.37451 43.8335 7.48312 43.4346 7.69106L44.7291 10.1534Z" fill="#96C470"/>
<path d="M47.5157 72.1791C54.3985 71.4895 60.779 68.2756 65.4189 63.161C70.0587 58.0465 72.6272 51.396 72.6257 44.5001C72.6257 32.7521 65.7028 23.4813 59.2039 17.3403C55.5516 13.9141 51.5307 10.9007 47.2144 8.355C46.853 8.14424 46.4884 7.93902 46.1207 7.73942L46.0537 7.70233L46.0314 7.69121C46.0314 7.69121 46.0202 7.6875 44.7257 10.1498L43.4348 7.6875H43.4274L43.4237 7.69121L43.4014 7.70233L43.3344 7.73942C42.9649 7.93582 42.6003 8.14107 42.2407 8.355C37.9244 10.9007 33.9035 13.9141 30.2512 17.3403C23.7523 23.4813 16.8257 32.7521 16.8257 44.5001C16.8251 51.3953 19.394 58.0449 24.0337 63.1587C28.6735 68.2725 35.0535 71.4859 41.9357 72.1754V78.7948C41.9357 79.5324 42.2296 80.2398 42.7529 80.7614C43.2761 81.283 43.9857 81.576 44.7257 81.576C45.4656 81.576 46.1753 81.283 46.6985 80.7614C47.2217 80.2398 47.5157 79.5324 47.5157 78.7948V72.1791ZM47.5157 66.5795V58.525L58.2925 51.1195C58.9018 50.7005 59.3191 50.0574 59.4527 49.3317C59.5863 48.606 59.4252 47.8572 59.0049 47.2499C58.5846 46.6425 57.9395 46.2265 57.2115 46.0933C56.4836 45.9602 55.7323 46.1207 55.1231 46.5397L47.5157 51.7685V41.018L56.0122 34.6805C56.5809 34.2301 56.951 33.5765 57.044 32.8584C57.1369 32.1404 56.9452 31.4145 56.5098 30.835C56.0743 30.2556 55.4293 29.8683 54.7119 29.7554C53.9945 29.6425 53.2612 29.8129 52.6679 30.2305L47.5157 34.0723V25.8991C47.5157 25.5339 47.4435 25.1722 47.3033 24.8348C47.1631 24.4973 46.9576 24.1907 46.6985 23.9325C46.4394 23.6742 46.1319 23.4694 45.7934 23.3296C45.4549 23.1898 45.0921 23.1179 44.7257 23.1179C44.3593 23.1179 43.9965 23.1898 43.658 23.3296C43.3195 23.4694 43.0119 23.6742 42.7529 23.9325C42.4938 24.1907 42.2883 24.4973 42.1481 24.8348C42.0079 25.1722 41.9357 25.5339 41.9357 25.8991V34.0723L36.7909 30.2305C36.1976 29.8129 35.4643 29.6425 34.7469 29.7554C34.0295 29.8683 33.3845 30.2556 32.949 30.835C32.5136 31.4145 32.3219 32.1404 32.4149 32.8584C32.5078 33.5765 32.8779 34.2301 33.4466 34.6805L41.9394 41.0217V51.7722L34.332 46.5434C33.7228 46.1568 32.9869 46.0207 32.2792 46.1637C31.5714 46.3068 30.9468 46.7179 30.5368 47.3106C30.1268 47.9032 29.9633 48.6313 30.0807 49.3416C30.1981 50.052 30.5872 50.6893 31.1663 51.1195L41.9394 58.5287V66.5795C36.5456 65.9021 31.5852 63.2855 27.9893 59.221C24.3935 55.1564 22.4094 49.9233 22.4094 44.5038C22.4094 35.0068 28.0378 27.1043 34.0939 21.3824C37.3427 18.3354 40.9095 15.6438 44.7331 13.3538C48.5568 15.6438 52.1235 18.3354 55.3723 21.3824C61.4248 27.1043 67.0531 35.0068 67.0531 44.5038C67.0532 49.9233 65.0691 55.1564 61.4732 59.221C57.8773 63.2855 52.917 65.9021 47.5231 66.5795" fill="#96C470"/>
<path d="M782.271 10.1534L780.98 7.69106C781.379 7.48312 781.823 7.37451 782.273 7.37451C782.723 7.37451 783.166 7.48312 783.565 7.69106L782.271 10.1534Z" fill="#96C470"/>
<path d="M779.484 72.1791C772.601 71.4895 766.221 68.2756 761.581 63.161C756.941 58.0465 754.373 51.396 754.374 44.5001C754.374 32.7521 761.297 23.4813 767.796 17.3403C771.448 13.9141 775.469 10.9007 779.786 8.355C780.147 8.14424 780.512 7.93902 780.879 7.73942L780.946 7.70233L780.969 7.69121C780.969 7.69121 780.98 7.6875 782.274 10.1498L783.565 7.6875H783.573L783.576 7.69121L783.599 7.70233L783.666 7.73942C784.035 7.93582 784.4 8.14107 784.759 8.355C789.076 10.9007 793.097 13.9141 796.749 17.3403C803.248 23.4813 810.174 32.7521 810.174 44.5001C810.175 51.3953 807.606 58.0449 802.966 63.1587C798.326 68.2725 791.947 71.4859 785.064 72.1754V78.7948C785.064 79.5324 784.77 80.2398 784.247 80.7614C783.724 81.283 783.014 81.576 782.274 81.576C781.534 81.576 780.825 81.283 780.301 80.7614C779.778 80.2398 779.484 79.5324 779.484 78.7948V72.1791ZM779.484 66.5795V58.525L768.707 51.1195C768.098 50.7005 767.681 50.0574 767.547 49.3317C767.414 48.606 767.575 47.8572 767.995 47.2499C768.415 46.6425 769.06 46.2265 769.788 46.0933C770.516 45.9602 771.268 46.1207 771.877 46.5397L779.484 51.7685V41.018L770.988 34.6805C770.419 34.2301 770.049 33.5765 769.956 32.8584C769.863 32.1404 770.055 31.4145 770.49 30.835C770.926 30.2556 771.571 29.8683 772.288 29.7554C773.005 29.6425 773.739 29.8129 774.332 30.2305L779.484 34.0723V25.8991C779.484 25.5339 779.556 25.1722 779.697 24.8348C779.837 24.4973 780.042 24.1907 780.301 23.9325C780.561 23.6742 780.868 23.4694 781.207 23.3296C781.545 23.1898 781.908 23.1179 782.274 23.1179C782.641 23.1179 783.004 23.1898 783.342 23.3296C783.681 23.4694 783.988 23.6742 784.247 23.9325C784.506 24.1907 784.712 24.4973 784.852 24.8348C784.992 25.1722 785.064 25.5339 785.064 25.8991V34.0723L790.209 30.2305C790.802 29.8129 791.536 29.6425 792.253 29.7554C792.971 29.8683 793.616 30.2556 794.051 30.835C794.486 31.4145 794.678 32.1404 794.585 32.8584C794.492 33.5765 794.122 34.2301 793.553 34.6805L785.061 41.0217V51.7722L792.668 46.5434C793.277 46.1568 794.013 46.0207 794.721 46.1637C795.429 46.3068 796.053 46.7179 796.463 47.3106C796.873 47.9032 797.037 48.6313 796.919 49.3416C796.802 50.052 796.413 50.6893 795.834 51.1195L785.061 58.5287V66.5795C790.454 65.9021 795.415 63.2855 799.011 59.221C802.607 55.1564 804.591 49.9233 804.591 44.5038C804.591 35.0068 798.962 27.1043 792.906 21.3824C789.657 18.3354 786.091 15.6438 782.267 13.3538C778.443 15.6438 774.876 18.3354 771.628 21.3824C765.575 27.1043 759.947 35.0068 759.947 44.5038C759.947 49.9233 761.931 55.1564 765.527 59.221C769.123 63.2855 774.083 65.9021 779.477 66.5795" fill="#96C470"/>
<path d="M96.2607 31.02C96.608 31.02 96.9503 31.1048 97.2578 31.2671L97.4336 31.3599L97.3418 31.5366L96.4395 33.2788L96.2627 33.6216L96.085 33.2798L95.1797 31.5366L95.0889 31.3599L95.2637 31.2671C95.5712 31.1048 95.9135 31.02 96.2607 31.02Z" fill="#96C470" stroke="#96C470" stroke-width="0.4"/>
<mask id="path-7-outside-1_199_186" maskUnits="userSpaceOnUse" x="75.7598" y="30.4414" width="41" height="54" fill="black">
<rect fill="white" x="75.7598" y="30.4414" width="41" height="54"/>
<path d="M98.2098 77.0928C103.02 76.6046 107.48 74.3296 110.723 70.7092C113.966 67.0888 115.761 62.3811 115.76 57.4998C115.76 49.1838 110.921 42.6213 106.379 38.2743C103.826 35.849 101.016 33.7159 97.9992 31.9139C97.7466 31.7647 97.4918 31.6194 97.2348 31.4782L97.188 31.4519L97.1724 31.444C97.1724 31.444 97.1646 31.4414 96.2598 33.1844L95.3576 31.4414H95.3524L95.3498 31.444L95.3342 31.4519L95.2874 31.4782C95.0291 31.6172 94.7743 31.7625 94.523 31.9139C91.5062 33.7159 88.6959 35.849 86.1432 38.2743C81.601 42.6213 76.7598 49.1838 76.7598 57.4998C76.7594 62.3806 78.5548 67.0877 81.7977 70.7075C85.0405 74.3274 89.4996 76.6021 94.3098 77.0901V81.7758C94.3098 82.2979 94.5152 82.7987 94.8809 83.1679C95.2466 83.5371 95.7426 83.7445 96.2598 83.7445C96.7769 83.7445 97.2729 83.5371 97.6386 83.1679C98.0043 82.7987 98.2098 82.2979 98.2098 81.7758V77.0928ZM98.2098 73.129V67.4275L105.742 62.1854C106.168 61.8888 106.459 61.4336 106.553 60.9199C106.646 60.4062 106.534 59.8761 106.24 59.4462C105.946 59.0163 105.495 58.7218 104.986 58.6276C104.478 58.5333 103.953 58.647 103.527 58.9435L98.2098 62.6448V55.0349L104.148 50.5488C104.546 50.23 104.804 49.7673 104.869 49.259C104.934 48.7507 104.8 48.2369 104.496 47.8267C104.192 47.4166 103.741 47.1424 103.239 47.0625C102.738 46.9826 102.225 47.1032 101.811 47.3988L98.2098 50.1183V44.3328C98.2098 44.0742 98.1593 43.8182 98.0613 43.5794C97.9633 43.3405 97.8197 43.1235 97.6386 42.9407C97.4576 42.7578 97.2426 42.6128 97.006 42.5139C96.7694 42.415 96.5158 42.364 96.2598 42.364C96.0037 42.364 95.7501 42.415 95.5135 42.5139C95.277 42.6128 95.062 42.7578 94.8809 42.9407C94.6998 43.1235 94.5562 43.3405 94.4582 43.5794C94.3602 43.8182 94.3098 44.0742 94.3098 44.3328V50.1183L90.714 47.3988C90.2993 47.1032 89.7867 46.9826 89.2853 47.0625C88.7839 47.1424 88.3331 47.4166 88.0288 47.8267C87.7244 48.2369 87.5905 48.7507 87.6554 49.259C87.7204 49.7673 87.9791 50.23 88.3766 50.5488L94.3124 55.0375V62.6474L88.9954 58.9462C88.5696 58.6725 88.0553 58.5761 87.5606 58.6774C87.0659 58.7787 86.6294 59.0697 86.3428 59.4892C86.0563 59.9087 85.942 60.4241 86.024 60.9269C86.1061 61.4297 86.3781 61.8809 86.7828 62.1854L94.3124 67.4302V73.129C90.5425 72.6495 87.0756 70.7973 84.5623 67.9201C82.0491 65.043 80.6623 61.3386 80.6624 57.5024C80.6624 50.7798 84.5962 45.1859 88.829 41.1355C91.0996 38.9787 93.5925 37.0734 96.265 35.4524C98.9374 37.0734 101.43 38.9787 103.701 41.1355C107.931 45.1859 111.865 50.7798 111.865 57.5024C111.865 61.3386 110.478 65.043 107.965 67.9201C105.452 70.7973 101.985 72.6495 98.215 73.129"/>
</mask>
<path d="M98.2098 77.0928C103.02 76.6046 107.48 74.3296 110.723 70.7092C113.966 67.0888 115.761 62.3811 115.76 57.4998C115.76 49.1838 110.921 42.6213 106.379 38.2743C103.826 35.849 101.016 33.7159 97.9992 31.9139C97.7466 31.7647 97.4918 31.6194 97.2348 31.4782L97.188 31.4519L97.1724 31.444C97.1724 31.444 97.1646 31.4414 96.2598 33.1844L95.3576 31.4414H95.3524L95.3498 31.444L95.3342 31.4519L95.2874 31.4782C95.0291 31.6172 94.7743 31.7625 94.523 31.9139C91.5062 33.7159 88.6959 35.849 86.1432 38.2743C81.601 42.6213 76.7598 49.1838 76.7598 57.4998C76.7594 62.3806 78.5548 67.0877 81.7977 70.7075C85.0405 74.3274 89.4996 76.6021 94.3098 77.0901V81.7758C94.3098 82.2979 94.5152 82.7987 94.8809 83.1679C95.2466 83.5371 95.7426 83.7445 96.2598 83.7445C96.7769 83.7445 97.2729 83.5371 97.6386 83.1679C98.0043 82.7987 98.2098 82.2979 98.2098 81.7758V77.0928ZM98.2098 73.129V67.4275L105.742 62.1854C106.168 61.8888 106.459 61.4336 106.553 60.9199C106.646 60.4062 106.534 59.8761 106.24 59.4462C105.946 59.0163 105.495 58.7218 104.986 58.6276C104.478 58.5333 103.953 58.647 103.527 58.9435L98.2098 62.6448V55.0349L104.148 50.5488C104.546 50.23 104.804 49.7673 104.869 49.259C104.934 48.7507 104.8 48.2369 104.496 47.8267C104.192 47.4166 103.741 47.1424 103.239 47.0625C102.738 46.9826 102.225 47.1032 101.811 47.3988L98.2098 50.1183V44.3328C98.2098 44.0742 98.1593 43.8182 98.0613 43.5794C97.9633 43.3405 97.8197 43.1235 97.6386 42.9407C97.4576 42.7578 97.2426 42.6128 97.006 42.5139C96.7694 42.415 96.5158 42.364 96.2598 42.364C96.0037 42.364 95.7501 42.415 95.5135 42.5139C95.277 42.6128 95.062 42.7578 94.8809 42.9407C94.6998 43.1235 94.5562 43.3405 94.4582 43.5794C94.3602 43.8182 94.3098 44.0742 94.3098 44.3328V50.1183L90.714 47.3988C90.2993 47.1032 89.7867 46.9826 89.2853 47.0625C88.7839 47.1424 88.3331 47.4166 88.0288 47.8267C87.7244 48.2369 87.5905 48.7507 87.6554 49.259C87.7204 49.7673 87.9791 50.23 88.3766 50.5488L94.3124 55.0375V62.6474L88.9954 58.9462C88.5696 58.6725 88.0553 58.5761 87.5606 58.6774C87.0659 58.7787 86.6294 59.0697 86.3428 59.4892C86.0563 59.9087 85.942 60.4241 86.024 60.9269C86.1061 61.4297 86.3781 61.8809 86.7828 62.1854L94.3124 67.4302V73.129C90.5425 72.6495 87.0756 70.7973 84.5623 67.9201C82.0491 65.043 80.6623 61.3386 80.6624 57.5024C80.6624 50.7798 84.5962 45.1859 88.829 41.1355C91.0996 38.9787 93.5925 37.0734 96.265 35.4524C98.9374 37.0734 101.43 38.9787 103.701 41.1355C107.931 45.1859 111.865 50.7798 111.865 57.5024C111.865 61.3386 110.478 65.043 107.965 67.9201C105.452 70.7973 101.985 72.6495 98.215 73.129" fill="#96C470"/>
<path d="M98.2098 77.0928L98.1694 76.6948L97.8098 76.7313V77.0928H98.2098ZM115.76 57.4998H115.36V57.4999L115.76 57.4998ZM106.379 38.2743L106.656 37.9853L106.654 37.9843L106.379 38.2743ZM97.9992 31.9139L98.2043 31.5705L98.2026 31.5695L97.9992 31.9139ZM97.2348 31.4782L97.0391 31.827L97.0421 31.8287L97.2348 31.4782ZM97.188 31.4519L97.3836 31.103L97.376 31.0988L97.3682 31.0948L97.188 31.4519ZM97.1724 31.444L97.3526 31.0869L97.3271 31.074L97.2999 31.0649L97.1724 31.444ZM96.2598 33.1844L95.9045 33.3683L96.2593 34.0536L96.6148 33.3687L96.2598 33.1844ZM95.3576 31.4414L95.7128 31.2575L95.6009 31.0414H95.3576V31.4414ZM95.3524 31.4414V31.0414H95.1855L95.0681 31.16L95.3524 31.4414ZM95.3498 31.444L95.53 31.8011L95.5882 31.7718L95.634 31.7254L95.3498 31.444ZM95.3342 31.4519L95.1539 31.0948L95.1461 31.0988L95.1385 31.103L95.3342 31.4519ZM95.2874 31.4782L95.477 31.8304L95.483 31.827L95.2874 31.4782ZM94.523 31.9139L94.7281 32.2573L94.7294 32.2565L94.523 31.9139ZM86.1432 38.2743L85.8677 37.9843L85.8666 37.9853L86.1432 38.2743ZM76.7598 57.4998L77.1598 57.4998V57.4998H76.7598ZM94.3098 77.0901H94.7098V76.7287L94.3501 76.6922L94.3098 77.0901ZM98.2098 67.4275L97.9813 67.0992L97.8098 67.2186V67.4275H98.2098ZM105.742 62.1854L105.97 62.5137L105.971 62.5136L105.742 62.1854ZM103.527 58.9435L103.755 59.2718L103.755 59.2718L103.527 58.9435ZM98.2098 62.6448H97.8098V63.4106L98.4383 62.9731L98.2098 62.6448ZM98.2098 55.0349L97.9687 54.7157L97.8098 54.8358V55.0349H98.2098ZM104.148 50.5488L104.389 50.8681L104.398 50.8608L104.148 50.5488ZM101.811 47.3988L101.579 47.0729L101.57 47.0796L101.811 47.3988ZM98.2098 50.1183H97.8098V50.9216L98.4508 50.4375L98.2098 50.1183ZM98.2098 44.3328H97.8098V44.3328H98.2098ZM94.3098 44.3328H94.7098V44.3328H94.3098ZM94.3098 50.1183L94.0685 50.4373L94.7098 50.9223V50.1183H94.3098ZM90.714 47.3988L90.9553 47.0796L90.9461 47.073L90.714 47.3988ZM88.3766 50.5488L88.1262 50.861L88.1353 50.8678L88.3766 50.5488ZM94.3124 55.0375H94.7124V54.8385L94.5536 54.7185L94.3124 55.0375ZM94.3124 62.6474L94.0838 62.9757L94.7124 63.4132V62.6474H94.3124ZM88.9954 58.9462L89.2239 58.6179L89.2179 58.6137L89.2117 58.6097L88.9954 58.9462ZM86.7828 62.1854L86.5423 62.505L86.5481 62.5094L86.5541 62.5136L86.7828 62.1854ZM94.3124 67.4302H94.7124V67.2213L94.541 67.1019L94.3124 67.4302ZM94.3124 73.129L94.2619 73.5258L94.7124 73.5831V73.129H94.3124ZM80.6624 57.5024L81.0624 57.5024V57.5024H80.6624ZM88.829 41.1355L88.5535 40.8455L88.5524 40.8465L88.829 41.1355ZM96.265 35.4524L96.4724 35.1104L96.265 34.9846L96.0575 35.1104L96.265 35.4524ZM103.701 41.1355L103.978 40.8466L103.976 40.8455L103.701 41.1355ZM111.865 57.5024H111.465V57.5024L111.865 57.5024ZM98.2098 77.0928L98.2501 77.4907C103.161 76.9925 107.712 74.6703 111.021 70.9761L110.723 70.7092L110.425 70.4423C107.248 73.9889 102.88 76.2168 98.1694 76.6948L98.2098 77.0928ZM110.723 70.7092L111.021 70.9761C114.33 67.2819 116.161 62.4791 116.16 57.4997L115.76 57.4998L115.36 57.4999C115.361 62.2831 113.602 66.8956 110.425 70.4423L110.723 70.7092ZM115.76 57.4998H116.16C116.16 49.0234 111.23 42.3629 106.656 37.9853L106.379 38.2743L106.102 38.5633C110.613 42.8796 115.36 49.3441 115.36 57.4998H115.76ZM106.379 38.2743L106.654 37.9843C104.08 35.5387 101.247 33.3877 98.2043 31.5705L97.9992 31.9139L97.794 32.2573C100.785 34.0441 103.572 36.1593 106.103 38.5643L106.379 38.2743ZM97.9992 31.9139L98.2026 31.5695C97.9465 31.4182 97.6881 31.2709 97.4275 31.1276L97.2348 31.4782L97.0421 31.8287C97.2954 31.968 97.5467 32.1112 97.7957 32.2583L97.9992 31.9139ZM97.2348 31.4782L97.4304 31.1293L97.3836 31.103L97.188 31.4519L96.9923 31.8008L97.0391 31.827L97.2348 31.4782ZM97.188 31.4519L97.3682 31.0948L97.3526 31.0869L97.1724 31.444L96.9921 31.8011L97.0077 31.809L97.188 31.4519ZM97.1724 31.444C97.2999 31.0649 97.2577 31.0532 97.2145 31.0463C97.2012 31.0451 97.1636 31.0441 97.1393 31.0454C97.0949 31.0491 97.0585 31.0596 97.0326 31.0692C96.9833 31.0876 96.9489 31.1117 96.9327 31.1238C96.8997 31.1485 96.8783 31.1727 96.8718 31.1801C96.8555 31.1986 96.8445 31.2147 96.8419 31.2185C96.8342 31.2298 96.8284 31.2395 96.8264 31.243C96.821 31.2521 96.8146 31.2635 96.8067 31.2778C96.7901 31.3078 96.7596 31.3643 96.7019 31.4734C96.586 31.6921 96.3573 32.1284 95.9048 33.0001L96.2598 33.1844L96.6148 33.3687C97.0671 32.4974 97.2946 32.0635 97.4088 31.8478C97.4661 31.7396 97.4941 31.6879 97.5074 31.6639C97.5143 31.6513 97.5156 31.6492 97.5141 31.6517C97.5141 31.6518 97.5093 31.6598 97.5022 31.6703C97.4999 31.6737 97.4891 31.6896 97.4728 31.7081C97.4664 31.7154 97.445 31.7396 97.412 31.7643C97.3958 31.7764 97.3615 31.8004 97.3121 31.8188C97.2862 31.8285 97.2499 31.839 97.2054 31.8427C97.1811 31.8439 97.1435 31.843 97.1303 31.8418C97.087 31.8348 97.0448 31.8231 97.1724 31.444ZM96.2598 33.1844L96.615 33.0005L95.7128 31.2575L95.3576 31.4414L95.0023 31.6253L95.9045 33.3683L96.2598 33.1844ZM95.3576 31.4414V31.0414H95.3524V31.4414V31.8414H95.3576V31.4414ZM95.3524 31.4414L95.0681 31.16L95.0655 31.1626L95.3498 31.444L95.634 31.7254L95.6366 31.7228L95.3524 31.4414ZM95.3498 31.444L95.1695 31.0869L95.1539 31.0948L95.3342 31.4519L95.5144 31.809L95.53 31.8011L95.3498 31.444ZM95.3342 31.4519L95.1385 31.103L95.0917 31.1293L95.2874 31.4782L95.483 31.827L95.5299 31.8008L95.3342 31.4519ZM95.2874 31.4782L95.0978 31.126C94.8338 31.268 94.5733 31.4165 94.3165 31.5713L94.523 31.9139L94.7294 32.2565C94.9752 32.1084 95.2244 31.9663 95.477 31.8304L95.2874 31.4782ZM94.523 31.9139L94.3178 31.5705C91.2756 33.3877 88.4417 35.5387 85.8677 37.9843L86.1432 38.2743L86.4187 38.5643C88.95 36.1593 91.7367 34.0441 94.7281 32.2573L94.523 31.9139ZM86.1432 38.2743L85.8666 37.9853C81.2925 42.3628 76.3598 49.0234 76.3598 57.4998H76.7598H77.1598C77.1598 49.3442 81.9094 42.8797 86.4197 38.5633L86.1432 38.2743ZM76.7598 57.4998L76.3598 57.4997C76.3594 62.4787 78.1908 67.2808 81.4997 70.9744L81.7977 70.7075L82.0956 70.4406C78.9188 66.8945 77.1594 62.2826 77.1598 57.4998L76.7598 57.4998ZM81.7977 70.7075L81.4997 70.9744C84.8087 74.6681 89.3595 76.9899 94.2694 77.4881L94.3098 77.0901L94.3501 76.6922C89.6397 76.2142 85.2723 73.9867 82.0956 70.4406L81.7977 70.7075ZM94.3098 77.0901H93.9098V81.7758H94.3098H94.7098V77.0901H94.3098ZM94.3098 81.7758H93.9098C93.9098 82.4028 94.1564 83.0049 94.5967 83.4494L94.8809 83.1679L95.1651 82.8864C94.874 82.5925 94.7098 82.1931 94.7098 81.7758H94.3098ZM94.8809 83.1679L94.5967 83.4494C95.0371 83.894 95.6353 84.1445 96.2598 84.1445V83.7445V83.3445C95.8499 83.3445 95.4561 83.1802 95.1651 82.8864L94.8809 83.1679ZM96.2598 83.7445V84.1445C96.8843 84.1445 97.4824 83.894 97.9228 83.4494L97.6386 83.1679L97.3544 82.8864C97.0635 83.1802 96.6696 83.3445 96.2598 83.3445V83.7445ZM97.6386 83.1679L97.9228 83.4494C98.3631 83.0049 98.6098 82.4028 98.6098 81.7758H98.2098H97.8098C97.8098 82.1931 97.6455 82.5925 97.3544 82.8864L97.6386 83.1679ZM98.2098 81.7758H98.6098V77.0928H98.2098H97.8098V81.7758H98.2098ZM98.2098 73.129H98.6098V67.4275H98.2098H97.8098V73.129H98.2098ZM98.2098 67.4275L98.4383 67.7558L105.97 62.5137L105.742 62.1854L105.513 61.8571L97.9813 67.0992L98.2098 67.4275ZM105.742 62.1854L105.971 62.5136C106.484 62.1562 106.834 61.6084 106.946 60.9915L106.553 60.9199L106.159 60.8484C106.085 61.2588 105.852 61.6214 105.513 61.8572L105.742 62.1854ZM106.553 60.9199L106.946 60.9915C107.059 60.3745 106.923 59.7376 106.57 59.2205L106.24 59.4462L105.91 59.6719C106.144 60.0146 106.234 60.4379 106.159 60.8484L106.553 60.9199ZM106.24 59.4462L106.57 59.2205C106.217 58.7034 105.674 58.3481 105.059 58.2343L104.986 58.6276L104.914 59.0209C105.317 59.0956 105.675 59.3293 105.91 59.6719L106.24 59.4462ZM104.986 58.6276L105.059 58.2343C104.445 58.1204 103.811 58.2578 103.298 58.6153L103.527 58.9435L103.755 59.2718C104.094 59.0361 104.51 58.9461 104.914 59.0209L104.986 58.6276ZM103.527 58.9435L103.298 58.6152L97.9812 62.3165L98.2098 62.6448L98.4383 62.9731L103.755 59.2718L103.527 58.9435ZM98.2098 62.6448H98.6098V55.0349H98.2098H97.8098V62.6448H98.2098ZM98.2098 55.0349L98.4509 55.3541L104.389 50.8679L104.148 50.5488L103.907 50.2296L97.9687 54.7157L98.2098 55.0349ZM104.148 50.5488L104.398 50.8608C104.877 50.4768 105.188 49.9202 105.266 49.3097L104.869 49.259L104.473 49.2083C104.421 49.6145 104.214 49.9832 103.898 50.2367L104.148 50.5488ZM104.869 49.259L105.266 49.3097C105.344 48.6993 105.183 48.0818 104.817 47.5884L104.496 47.8267L104.175 48.0651C104.417 48.392 104.524 48.8022 104.473 49.2083L104.869 49.259ZM104.496 47.8267L104.817 47.5884C104.451 47.0948 103.908 46.764 103.302 46.6675L103.239 47.0625L103.176 47.4575C103.574 47.5209 103.932 47.7383 104.175 48.0651L104.496 47.8267ZM103.239 47.0625L103.302 46.6675C102.697 46.571 102.079 46.7168 101.579 47.073L101.811 47.3988L102.043 47.7245C102.372 47.4897 102.779 47.3942 103.176 47.4575L103.239 47.0625ZM101.811 47.3988L101.57 47.0796L97.9687 49.7991L98.2098 50.1183L98.4508 50.4375L102.052 47.718L101.811 47.3988ZM98.2098 50.1183H98.6098V44.3328H98.2098H97.8098V50.1183H98.2098ZM98.2098 44.3328H98.6098C98.6098 44.0222 98.5492 43.7147 98.4314 43.4275L98.0613 43.5794L97.6913 43.7312C97.7695 43.9218 97.8098 44.1262 97.8098 44.3328H98.2098ZM98.0613 43.5794L98.4314 43.4275C98.3136 43.1404 98.1409 42.8793 97.9228 42.6592L97.6386 42.9407L97.3544 43.2222C97.4985 43.3677 97.6131 43.5406 97.6913 43.7312L98.0613 43.5794ZM97.6386 42.9407L97.9228 42.6592C97.7048 42.439 97.4457 42.2642 97.1603 42.1449L97.006 42.5139L96.8517 42.8829C97.0395 42.9615 97.2103 43.0767 97.3544 43.2222L97.6386 42.9407ZM97.006 42.5139L97.1603 42.1449C96.8749 42.0255 96.5689 41.964 96.2598 41.964V42.364V42.764C96.4628 42.764 96.6639 42.8044 96.8517 42.8829L97.006 42.5139ZM96.2598 42.364V41.964C95.9506 41.964 95.6446 42.0255 95.3592 42.1449L95.5135 42.5139L95.6679 42.8829C95.8556 42.8044 96.0568 42.764 96.2598 42.764V42.364ZM95.5135 42.5139L95.3592 42.1449C95.0738 42.2642 94.8148 42.439 94.5967 42.6592L94.8809 42.9407L95.1651 43.2222C95.3092 43.0767 95.4801 42.9615 95.6679 42.8829L95.5135 42.5139ZM94.8809 42.9407L94.5967 42.6592C94.3787 42.8793 94.2059 43.1404 94.0881 43.4275L94.4582 43.5794L94.8283 43.7312C94.9065 43.5406 95.021 43.3677 95.1651 43.2222L94.8809 42.9407ZM94.4582 43.5794L94.0881 43.4275C93.9703 43.7147 93.9098 44.0222 93.9098 44.3328H94.3098H94.7098C94.7098 44.1262 94.7501 43.9218 94.8283 43.7312L94.4582 43.5794ZM94.3098 44.3328H93.9098V50.1183H94.3098H94.7098V44.3328H94.3098ZM94.3098 50.1183L94.5511 49.7992L90.9553 47.0797L90.714 47.3988L90.4727 47.7178L94.0685 50.4373L94.3098 50.1183ZM90.714 47.3988L90.9461 47.073C90.4462 46.7168 89.8278 46.571 89.2224 46.6675L89.2853 47.0625L89.3483 47.4575C89.7457 47.3942 90.1523 47.4897 90.4818 47.7245L90.714 47.3988ZM89.2853 47.0625L89.2224 46.6675C88.617 46.764 88.0738 47.0948 87.7075 47.5884L88.0288 47.8267L88.35 48.0651C88.5925 47.7383 88.9508 47.5209 89.3483 47.4575L89.2853 47.0625ZM88.0288 47.8267L87.7075 47.5884C87.3414 48.0818 87.1807 48.6993 87.2586 49.3097L87.6554 49.259L88.0522 49.2083C88.0003 48.8022 88.1074 48.392 88.35 48.0651L88.0288 47.8267ZM87.6554 49.259L87.2586 49.3097C87.3366 49.9202 87.6475 50.4768 88.1263 50.8608L88.3766 50.5488L88.6268 50.2367C88.3107 49.9832 88.1041 49.6145 88.0522 49.2083L87.6554 49.259ZM88.3766 50.5488L88.1353 50.8678L94.0711 55.3566L94.3124 55.0375L94.5536 54.7185L88.6178 50.2297L88.3766 50.5488ZM94.3124 55.0375H93.9124V62.6474H94.3124H94.7124V55.0375H94.3124ZM94.3124 62.6474L94.5409 62.3191L89.2239 58.6179L88.9954 58.9462L88.7668 59.2744L94.0838 62.9757L94.3124 62.6474ZM88.9954 58.9462L89.2117 58.6097C88.6983 58.2797 88.0776 58.1633 87.4804 58.2855L87.5606 58.6774L87.6408 59.0693C88.0329 58.989 88.4409 59.0652 88.7791 59.2826L88.9954 58.9462ZM87.5606 58.6774L87.4804 58.2855C86.8832 58.4078 86.3573 58.7588 86.0125 59.2636L86.3428 59.4892L86.6731 59.7148C86.9015 59.3805 87.2486 59.1496 87.6408 59.0693L87.5606 58.6774ZM86.3428 59.4892L86.0125 59.2636C85.6678 59.7682 85.5307 60.3874 85.6293 60.9913L86.024 60.9269L86.4188 60.8625C86.3533 60.4607 86.4447 60.0492 86.6731 59.7148L86.3428 59.4892ZM86.024 60.9269L85.6293 60.9913C85.7278 61.5953 86.0546 62.1381 86.5423 62.505L86.7828 62.1854L87.0233 61.8658C86.7015 61.6237 86.4844 61.2642 86.4188 60.8625L86.024 60.9269ZM86.7828 62.1854L86.5541 62.5136L94.0837 67.7584L94.3124 67.4302L94.541 67.1019L87.0114 61.8572L86.7828 62.1854ZM94.3124 67.4302H93.9124V73.129H94.3124H94.7124V67.4302H94.3124ZM94.3124 73.129L94.3628 72.7322C90.6907 72.2651 87.3128 70.4609 84.8636 67.657L84.5623 67.9201L84.2611 68.1833C86.8383 71.1338 90.3943 73.0339 94.2619 73.5258L94.3124 73.129ZM84.5623 67.9201L84.8636 67.657C82.4143 64.853 81.0623 61.2423 81.0624 57.5024L80.6624 57.5024L80.2624 57.5024C80.2623 61.4349 81.6839 65.2329 84.2611 68.1833L84.5623 67.9201ZM80.6624 57.5024H81.0624C81.0624 50.94 84.9049 45.4441 89.1055 41.4245L88.829 41.1355L88.5524 40.8465C84.2874 44.9277 80.2624 50.6196 80.2624 57.5024H80.6624ZM88.829 41.1355L89.1044 41.4255C91.3544 39.2883 93.8245 37.4006 96.4724 35.7944L96.265 35.4524L96.0575 35.1104C93.3605 36.7463 90.8449 38.669 88.5535 40.8455L88.829 41.1355ZM96.265 35.4524L96.0575 35.7944C98.7054 37.4006 101.176 39.2883 103.425 41.4255L103.701 41.1355L103.976 40.8455C101.685 38.669 99.1694 36.7463 96.4724 35.1104L96.265 35.4524ZM103.701 41.1355L103.424 41.4244C107.622 45.4441 111.465 50.94 111.465 57.5024H111.865H112.265C112.265 50.6196 108.24 44.9277 103.978 40.8466L103.701 41.1355ZM111.865 57.5024L111.465 57.5024C111.465 61.2423 110.113 64.853 107.664 67.657L107.965 67.9201L108.266 68.1833C110.843 65.2329 112.265 61.4349 112.265 57.5024L111.865 57.5024ZM107.965 67.9201L107.664 67.657C105.215 70.4609 101.837 72.2651 98.1645 72.7322L98.215 73.129L98.2654 73.5258C102.133 73.0339 105.689 71.1338 108.266 68.1833L107.965 67.9201Z" fill="#96C470" mask="url(#path-7-outside-1_199_186)"/>
<path d="M728.261 31.02C728.608 31.02 728.95 31.1048 729.258 31.2671L729.434 31.3599L729.342 31.5366L728.439 33.2788L728.263 33.6216L728.085 33.2798L727.18 31.5366L727.089 31.3599L727.264 31.2671C727.571 31.1048 727.914 31.02 728.261 31.02Z" fill="#96C470" stroke="#96C470" stroke-width="0.4"/>
<mask id="path-10-outside-2_199_186" maskUnits="userSpaceOnUse" x="707.76" y="30.4414" width="41" height="54" fill="black">
<rect fill="white" x="707.76" y="30.4414" width="41" height="54"/>
<path d="M730.21 77.0928C735.02 76.6046 739.48 74.3296 742.723 70.7092C745.966 67.0888 747.761 62.3811 747.76 57.4998C747.76 49.1838 742.921 42.6213 738.379 38.2743C735.826 35.849 733.016 33.7159 729.999 31.9139C729.747 31.7647 729.492 31.6194 729.235 31.4782L729.188 31.4519L729.172 31.444C729.172 31.444 729.165 31.4414 728.26 33.1844L727.358 31.4414H727.352L727.35 31.444L727.334 31.4519L727.287 31.4782C727.029 31.6172 726.774 31.7625 726.523 31.9139C723.506 33.7159 720.696 35.849 718.143 38.2743C713.601 42.6213 708.76 49.1838 708.76 57.4998C708.759 62.3806 710.555 67.0877 713.798 70.7075C717.041 74.3274 721.5 76.6021 726.31 77.0901V81.7758C726.31 82.2979 726.515 82.7987 726.881 83.1679C727.247 83.5371 727.743 83.7445 728.26 83.7445C728.777 83.7445 729.273 83.5371 729.639 83.1679C730.004 82.7987 730.21 82.2979 730.21 81.7758V77.0928ZM730.21 73.129V67.4275L737.742 62.1854C738.168 61.8888 738.459 61.4336 738.553 60.9199C738.646 60.4062 738.534 59.8761 738.24 59.4462C737.946 59.0163 737.495 58.7218 736.986 58.6276C736.478 58.5333 735.953 58.647 735.527 58.9435L730.21 62.6448V55.0349L736.148 50.5488C736.546 50.23 736.804 49.7673 736.869 49.259C736.934 48.7507 736.8 48.2369 736.496 47.8267C736.192 47.4166 735.741 47.1424 735.239 47.0625C734.738 46.9826 734.225 47.1032 733.811 47.3988L730.21 50.1183V44.3328C730.21 44.0742 730.159 43.8182 730.061 43.5794C729.963 43.3405 729.82 43.1235 729.639 42.9407C729.458 42.7578 729.243 42.6128 729.006 42.5139C728.769 42.415 728.516 42.364 728.26 42.364C728.004 42.364 727.75 42.415 727.514 42.5139C727.277 42.6128 727.062 42.7578 726.881 42.9407C726.7 43.1235 726.556 43.3405 726.458 43.5794C726.36 43.8182 726.31 44.0742 726.31 44.3328V50.1183L722.714 47.3988C722.299 47.1032 721.787 46.9826 721.285 47.0625C720.784 47.1424 720.333 47.4166 720.029 47.8267C719.724 48.2369 719.59 48.7507 719.655 49.259C719.72 49.7673 719.979 50.23 720.377 50.5488L726.312 55.0375V62.6474L720.995 58.9462C720.57 58.6725 720.055 58.5761 719.561 58.6774C719.066 58.7787 718.629 59.0697 718.343 59.4892C718.056 59.9087 717.942 60.4241 718.024 60.9269C718.106 61.4297 718.378 61.8809 718.783 62.1854L726.312 67.4302V73.129C722.542 72.6495 719.076 70.7973 716.562 67.9201C714.049 65.043 712.662 61.3386 712.662 57.5024C712.662 50.7798 716.596 45.1859 720.829 41.1355C723.1 38.9787 725.593 37.0734 728.265 35.4524C730.937 37.0734 733.43 38.9787 735.701 41.1355C739.931 45.1859 743.865 50.7798 743.865 57.5024C743.865 61.3386 742.478 65.043 739.965 67.9201C737.452 70.7973 733.985 72.6495 730.215 73.129"/>
</mask>
<path d="M730.21 77.0928C735.02 76.6046 739.48 74.3296 742.723 70.7092C745.966 67.0888 747.761 62.3811 747.76 57.4998C747.76 49.1838 742.921 42.6213 738.379 38.2743C735.826 35.849 733.016 33.7159 729.999 31.9139C729.747 31.7647 729.492 31.6194 729.235 31.4782L729.188 31.4519L729.172 31.444C729.172 31.444 729.165 31.4414 728.26 33.1844L727.358 31.4414H727.352L727.35 31.444L727.334 31.4519L727.287 31.4782C727.029 31.6172 726.774 31.7625 726.523 31.9139C723.506 33.7159 720.696 35.849 718.143 38.2743C713.601 42.6213 708.76 49.1838 708.76 57.4998C708.759 62.3806 710.555 67.0877 713.798 70.7075C717.041 74.3274 721.5 76.6021 726.31 77.0901V81.7758C726.31 82.2979 726.515 82.7987 726.881 83.1679C727.247 83.5371 727.743 83.7445 728.26 83.7445C728.777 83.7445 729.273 83.5371 729.639 83.1679C730.004 82.7987 730.21 82.2979 730.21 81.7758V77.0928ZM730.21 73.129V67.4275L737.742 62.1854C738.168 61.8888 738.459 61.4336 738.553 60.9199C738.646 60.4062 738.534 59.8761 738.24 59.4462C737.946 59.0163 737.495 58.7218 736.986 58.6276C736.478 58.5333 735.953 58.647 735.527 58.9435L730.21 62.6448V55.0349L736.148 50.5488C736.546 50.23 736.804 49.7673 736.869 49.259C736.934 48.7507 736.8 48.2369 736.496 47.8267C736.192 47.4166 735.741 47.1424 735.239 47.0625C734.738 46.9826 734.225 47.1032 733.811 47.3988L730.21 50.1183V44.3328C730.21 44.0742 730.159 43.8182 730.061 43.5794C729.963 43.3405 729.82 43.1235 729.639 42.9407C729.458 42.7578 729.243 42.6128 729.006 42.5139C728.769 42.415 728.516 42.364 728.26 42.364C728.004 42.364 727.75 42.415 727.514 42.5139C727.277 42.6128 727.062 42.7578 726.881 42.9407C726.7 43.1235 726.556 43.3405 726.458 43.5794C726.36 43.8182 726.31 44.0742 726.31 44.3328V50.1183L722.714 47.3988C722.299 47.1032 721.787 46.9826 721.285 47.0625C720.784 47.1424 720.333 47.4166 720.029 47.8267C719.724 48.2369 719.59 48.7507 719.655 49.259C719.72 49.7673 719.979 50.23 720.377 50.5488L726.312 55.0375V62.6474L720.995 58.9462C720.57 58.6725 720.055 58.5761 719.561 58.6774C719.066 58.7787 718.629 59.0697 718.343 59.4892C718.056 59.9087 717.942 60.4241 718.024 60.9269C718.106 61.4297 718.378 61.8809 718.783 62.1854L726.312 67.4302V73.129C722.542 72.6495 719.076 70.7973 716.562 67.9201C714.049 65.043 712.662 61.3386 712.662 57.5024C712.662 50.7798 716.596 45.1859 720.829 41.1355C723.1 38.9787 725.593 37.0734 728.265 35.4524C730.937 37.0734 733.43 38.9787 735.701 41.1355C739.931 45.1859 743.865 50.7798 743.865 57.5024C743.865 61.3386 742.478 65.043 739.965 67.9201C737.452 70.7973 733.985 72.6495 730.215 73.129" fill="#96C470"/>
<path d="M730.21 77.0928L730.169 76.6948L729.81 76.7313V77.0928H730.21ZM747.76 57.4998H747.36V57.4999L747.76 57.4998ZM738.379 38.2743L738.656 37.9853L738.654 37.9843L738.379 38.2743ZM729.999 31.9139L730.204 31.5705L730.203 31.5695L729.999 31.9139ZM729.235 31.4782L729.039 31.827L729.042 31.8287L729.235 31.4782ZM729.188 31.4519L729.384 31.103L729.376 31.0988L729.368 31.0948L729.188 31.4519ZM729.172 31.444L729.353 31.0869L729.327 31.074L729.3 31.0649L729.172 31.444ZM728.26 33.1844L727.905 33.3683L728.259 34.0536L728.615 33.3687L728.26 33.1844ZM727.358 31.4414L727.713 31.2575L727.601 31.0414H727.358V31.4414ZM727.352 31.4414V31.0414H727.186L727.068 31.16L727.352 31.4414ZM727.35 31.444L727.53 31.8011L727.588 31.7718L727.634 31.7254L727.35 31.444ZM727.334 31.4519L727.154 31.0948L727.146 31.0988L727.138 31.103L727.334 31.4519ZM727.287 31.4782L727.477 31.8304L727.483 31.827L727.287 31.4782ZM726.523 31.9139L726.728 32.2573L726.729 32.2565L726.523 31.9139ZM718.143 38.2743L717.868 37.9843L717.867 37.9853L718.143 38.2743ZM708.76 57.4998L709.16 57.4998V57.4998H708.76ZM726.31 77.0901H726.71V76.7287L726.35 76.6922L726.31 77.0901ZM730.21 67.4275L729.981 67.0992L729.81 67.2186V67.4275H730.21ZM737.742 62.1854L737.97 62.5137L737.971 62.5136L737.742 62.1854ZM735.527 58.9435L735.755 59.2718L735.755 59.2718L735.527 58.9435ZM730.21 62.6448H729.81V63.4106L730.438 62.9731L730.21 62.6448ZM730.21 55.0349L729.969 54.7157L729.81 54.8358V55.0349H730.21ZM736.148 50.5488L736.389 50.8681L736.398 50.8608L736.148 50.5488ZM733.811 47.3988L733.579 47.0729L733.57 47.0796L733.811 47.3988ZM730.21 50.1183H729.81V50.9216L730.451 50.4375L730.21 50.1183ZM730.21 44.3328H729.81V44.3328H730.21ZM726.31 44.3328H726.71V44.3328H726.31ZM726.31 50.1183L726.068 50.4373L726.71 50.9223V50.1183H726.31ZM722.714 47.3988L722.955 47.0796L722.946 47.073L722.714 47.3988ZM720.377 50.5488L720.126 50.861L720.135 50.8678L720.377 50.5488ZM726.312 55.0375H726.712V54.8385L726.554 54.7185L726.312 55.0375ZM726.312 62.6474L726.084 62.9757L726.712 63.4132V62.6474H726.312ZM720.995 58.9462L721.224 58.6179L721.218 58.6137L721.212 58.6097L720.995 58.9462ZM718.783 62.1854L718.542 62.505L718.548 62.5094L718.554 62.5136L718.783 62.1854ZM726.312 67.4302H726.712V67.2213L726.541 67.1019L726.312 67.4302ZM726.312 73.129L726.262 73.5258L726.712 73.5831V73.129H726.312ZM712.662 57.5024L713.062 57.5024V57.5024H712.662ZM720.829 41.1355L720.553 40.8455L720.552 40.8465L720.829 41.1355ZM728.265 35.4524L728.472 35.1104L728.265 34.9846L728.058 35.1104L728.265 35.4524ZM735.701 41.1355L735.978 40.8466L735.976 40.8455L735.701 41.1355ZM743.865 57.5024H743.465V57.5024L743.865 57.5024ZM730.21 77.0928L730.25 77.4907C735.161 76.9925 739.712 74.6703 743.021 70.9761L742.723 70.7092L742.425 70.4423C739.248 73.9889 734.88 76.2168 730.169 76.6948L730.21 77.0928ZM742.723 70.7092L743.021 70.9761C746.33 67.2819 748.161 62.4791 748.16 57.4997L747.76 57.4998L747.36 57.4999C747.361 62.2831 745.602 66.8956 742.425 70.4423L742.723 70.7092ZM747.76 57.4998H748.16C748.16 49.0234 743.23 42.3629 738.656 37.9853L738.379 38.2743L738.102 38.5633C742.613 42.8796 747.36 49.3441 747.36 57.4998H747.76ZM738.379 38.2743L738.654 37.9843C736.08 35.5387 733.247 33.3877 730.204 31.5705L729.999 31.9139L729.794 32.2573C732.785 34.0441 735.572 36.1593 738.103 38.5643L738.379 38.2743ZM729.999 31.9139L730.203 31.5695C729.946 31.4182 729.688 31.2709 729.427 31.1276L729.235 31.4782L729.042 31.8287C729.295 31.968 729.547 32.1112 729.796 32.2583L729.999 31.9139ZM729.235 31.4782L729.43 31.1293L729.384 31.103L729.188 31.4519L728.992 31.8008L729.039 31.827L729.235 31.4782ZM729.188 31.4519L729.368 31.0948L729.353 31.0869L729.172 31.444L728.992 31.8011L729.008 31.809L729.188 31.4519ZM729.172 31.444C729.3 31.0649 729.258 31.0532 729.214 31.0463C729.201 31.0451 729.164 31.0441 729.139 31.0454C729.095 31.0491 729.059 31.0596 729.033 31.0692C728.983 31.0876 728.949 31.1117 728.933 31.1238C728.9 31.1485 728.878 31.1727 728.872 31.1801C728.855 31.1986 728.845 31.2147 728.842 31.2185C728.834 31.2298 728.828 31.2395 728.826 31.243C728.821 31.2521 728.815 31.2635 728.807 31.2778C728.79 31.3078 728.76 31.3643 728.702 31.4734C728.586 31.6921 728.357 32.1284 727.905 33.0001L728.26 33.1844L728.615 33.3687C729.067 32.4974 729.295 32.0635 729.409 31.8478C729.466 31.7396 729.494 31.6879 729.507 31.6639C729.514 31.6513 729.516 31.6492 729.514 31.6517C729.514 31.6518 729.509 31.6598 729.502 31.6703C729.5 31.6737 729.489 31.6896 729.473 31.7081C729.466 31.7154 729.445 31.7396 729.412 31.7643C729.396 31.7764 729.361 31.8004 729.312 31.8188C729.286 31.8285 729.25 31.839 729.205 31.8427C729.181 31.8439 729.144 31.843 729.13 31.8418C729.087 31.8348 729.045 31.8231 729.172 31.444ZM728.26 33.1844L728.615 33.0005L727.713 31.2575L727.358 31.4414L727.002 31.6253L727.905 33.3683L728.26 33.1844ZM727.358 31.4414V31.0414H727.352V31.4414V31.8414H727.358V31.4414ZM727.352 31.4414L727.068 31.16L727.066 31.1626L727.35 31.444L727.634 31.7254L727.637 31.7228L727.352 31.4414ZM727.35 31.444L727.17 31.0869L727.154 31.0948L727.334 31.4519L727.514 31.809L727.53 31.8011L727.35 31.444ZM727.334 31.4519L727.138 31.103L727.092 31.1293L727.287 31.4782L727.483 31.827L727.53 31.8008L727.334 31.4519ZM727.287 31.4782L727.098 31.126C726.834 31.268 726.573 31.4165 726.317 31.5713L726.523 31.9139L726.729 32.2565C726.975 32.1084 727.224 31.9663 727.477 31.8304L727.287 31.4782ZM726.523 31.9139L726.318 31.5705C723.276 33.3877 720.442 35.5387 717.868 37.9843L718.143 38.2743L718.419 38.5643C720.95 36.1593 723.737 34.0441 726.728 32.2573L726.523 31.9139ZM718.143 38.2743L717.867 37.9853C713.292 42.3628 708.36 49.0234 708.36 57.4998H708.76H709.16C709.16 49.3442 713.909 42.8797 718.42 38.5633L718.143 38.2743ZM708.76 57.4998L708.36 57.4997C708.359 62.4787 710.191 67.2808 713.5 70.9744L713.798 70.7075L714.096 70.4406C710.919 66.8945 709.159 62.2826 709.16 57.4998L708.76 57.4998ZM713.798 70.7075L713.5 70.9744C716.809 74.6681 721.359 76.9899 726.269 77.4881L726.31 77.0901L726.35 76.6922C721.64 76.2142 717.272 73.9867 714.096 70.4406L713.798 70.7075ZM726.31 77.0901H725.91V81.7758H726.31H726.71V77.0901H726.31ZM726.31 81.7758H725.91C725.91 82.4028 726.156 83.0049 726.597 83.4494L726.881 83.1679L727.165 82.8864C726.874 82.5925 726.71 82.1931 726.71 81.7758H726.31ZM726.881 83.1679L726.597 83.4494C727.037 83.894 727.635 84.1445 728.26 84.1445V83.7445V83.3445C727.85 83.3445 727.456 83.1802 727.165 82.8864L726.881 83.1679ZM728.26 83.7445V84.1445C728.884 84.1445 729.482 83.894 729.923 83.4494L729.639 83.1679L729.354 82.8864C729.063 83.1802 728.67 83.3445 728.26 83.3445V83.7445ZM729.639 83.1679L729.923 83.4494C730.363 83.0049 730.61 82.4028 730.61 81.7758H730.21H729.81C729.81 82.1931 729.646 82.5925 729.354 82.8864L729.639 83.1679ZM730.21 81.7758H730.61V77.0928H730.21H729.81V81.7758H730.21ZM730.21 73.129H730.61V67.4275H730.21H729.81V73.129H730.21ZM730.21 67.4275L730.438 67.7558L737.97 62.5137L737.742 62.1854L737.513 61.8571L729.981 67.0992L730.21 67.4275ZM737.742 62.1854L737.971 62.5136C738.484 62.1562 738.834 61.6084 738.946 60.9915L738.553 60.9199L738.159 60.8484C738.085 61.2588 737.852 61.6214 737.513 61.8572L737.742 62.1854ZM738.553 60.9199L738.946 60.9915C739.059 60.3745 738.923 59.7376 738.57 59.2205L738.24 59.4462L737.91 59.6719C738.144 60.0146 738.234 60.4379 738.159 60.8484L738.553 60.9199ZM738.24 59.4462L738.57 59.2205C738.217 58.7034 737.674 58.3481 737.059 58.2343L736.986 58.6276L736.914 59.0209C737.317 59.0956 737.675 59.3293 737.91 59.6719L738.24 59.4462ZM736.986 58.6276L737.059 58.2343C736.445 58.1204 735.811 58.2578 735.298 58.6153L735.527 58.9435L735.755 59.2718C736.094 59.0361 736.51 58.9461 736.914 59.0209L736.986 58.6276ZM735.527 58.9435L735.298 58.6152L729.981 62.3165L730.21 62.6448L730.438 62.9731L735.755 59.2718L735.527 58.9435ZM730.21 62.6448H730.61V55.0349H730.21H729.81V62.6448H730.21ZM730.21 55.0349L730.451 55.3541L736.389 50.8679L736.148 50.5488L735.907 50.2296L729.969 54.7157L730.21 55.0349ZM736.148 50.5488L736.398 50.8608C736.877 50.4768 737.188 49.9202 737.266 49.3097L736.869 49.259L736.473 49.2083C736.421 49.6145 736.214 49.9832 735.898 50.2367L736.148 50.5488ZM736.869 49.259L737.266 49.3097C737.344 48.6993 737.183 48.0818 736.817 47.5884L736.496 47.8267L736.175 48.0651C736.417 48.392 736.524 48.8022 736.473 49.2083L736.869 49.259ZM736.496 47.8267L736.817 47.5884C736.451 47.0948 735.908 46.764 735.302 46.6675L735.239 47.0625L735.176 47.4575C735.574 47.5209 735.932 47.7383 736.175 48.0651L736.496 47.8267ZM735.239 47.0625L735.302 46.6675C734.697 46.571 734.079 46.7168 733.579 47.073L733.811 47.3988L734.043 47.7245C734.372 47.4897 734.779 47.3942 735.176 47.4575L735.239 47.0625ZM733.811 47.3988L733.57 47.0796L729.969 49.7991L730.21 50.1183L730.451 50.4375L734.052 47.718L733.811 47.3988ZM730.21 50.1183H730.61V44.3328H730.21H729.81V50.1183H730.21ZM730.21 44.3328H730.61C730.61 44.0222 730.549 43.7147 730.431 43.4275L730.061 43.5794L729.691 43.7312C729.769 43.9218 729.81 44.1262 729.81 44.3328H730.21ZM730.061 43.5794L730.431 43.4275C730.314 43.1404 730.141 42.8793 729.923 42.6592L729.639 42.9407L729.354 43.2222C729.499 43.3677 729.613 43.5406 729.691 43.7312L730.061 43.5794ZM729.639 42.9407L729.923 42.6592C729.705 42.439 729.446 42.2642 729.16 42.1449L729.006 42.5139L728.852 42.8829C729.039 42.9615 729.21 43.0767 729.354 43.2222L729.639 42.9407ZM729.006 42.5139L729.16 42.1449C728.875 42.0255 728.569 41.964 728.26 41.964V42.364V42.764C728.463 42.764 728.664 42.8044 728.852 42.8829L729.006 42.5139ZM728.26 42.364V41.964C727.951 41.964 727.645 42.0255 727.359 42.1449L727.514 42.5139L727.668 42.8829C727.856 42.8044 728.057 42.764 728.26 42.764V42.364ZM727.514 42.5139L727.359 42.1449C727.074 42.2642 726.815 42.439 726.597 42.6592L726.881 42.9407L727.165 43.2222C727.309 43.0767 727.48 42.9615 727.668 42.8829L727.514 42.5139ZM726.881 42.9407L726.597 42.6592C726.379 42.8793 726.206 43.1404 726.088 43.4275L726.458 43.5794L726.828 43.7312C726.906 43.5406 727.021 43.3677 727.165 43.2222L726.881 42.9407ZM726.458 43.5794L726.088 43.4275C725.97 43.7147 725.91 44.0222 725.91 44.3328H726.31H726.71C726.71 44.1262 726.75 43.9218 726.828 43.7312L726.458 43.5794ZM726.31 44.3328H725.91V50.1183H726.31H726.71V44.3328H726.31ZM726.31 50.1183L726.551 49.7992L722.955 47.0797L722.714 47.3988L722.473 47.7178L726.068 50.4373L726.31 50.1183ZM722.714 47.3988L722.946 47.073C722.446 46.7168 721.828 46.571 721.222 46.6675L721.285 47.0625L721.348 47.4575C721.746 47.3942 722.152 47.4897 722.482 47.7245L722.714 47.3988ZM721.285 47.0625L721.222 46.6675C720.617 46.764 720.074 47.0948 719.708 47.5884L720.029 47.8267L720.35 48.0651C720.592 47.7383 720.951 47.5209 721.348 47.4575L721.285 47.0625ZM720.029 47.8267L719.708 47.5884C719.341 48.0818 719.181 48.6993 719.259 49.3097L719.655 49.259L720.052 49.2083C720 48.8022 720.107 48.392 720.35 48.0651L720.029 47.8267ZM719.655 49.259L719.259 49.3097C719.337 49.9202 719.647 50.4768 720.126 50.8608L720.377 50.5488L720.627 50.2367C720.311 49.9832 720.104 49.6145 720.052 49.2083L719.655 49.259ZM720.377 50.5488L720.135 50.8678L726.071 55.3566L726.312 55.0375L726.554 54.7185L720.618 50.2297L720.377 50.5488ZM726.312 55.0375H725.912V62.6474H726.312H726.712V55.0375H726.312ZM726.312 62.6474L726.541 62.3191L721.224 58.6179L720.995 58.9462L720.767 59.2744L726.084 62.9757L726.312 62.6474ZM720.995 58.9462L721.212 58.6097C720.698 58.2797 720.078 58.1633 719.48 58.2855L719.561 58.6774L719.641 59.0693C720.033 58.989 720.441 59.0652 720.779 59.2826L720.995 58.9462ZM719.561 58.6774L719.48 58.2855C718.883 58.4078 718.357 58.7588 718.013 59.2636L718.343 59.4892L718.673 59.7148C718.901 59.3805 719.249 59.1496 719.641 59.0693L719.561 58.6774ZM718.343 59.4892L718.013 59.2636C717.668 59.7682 717.531 60.3874 717.629 60.9913L718.024 60.9269L718.419 60.8625C718.353 60.4607 718.445 60.0492 718.673 59.7148L718.343 59.4892ZM718.024 60.9269L717.629 60.9913C717.728 61.5953 718.055 62.1381 718.542 62.505L718.783 62.1854L719.023 61.8658C718.702 61.6237 718.484 61.2642 718.419 60.8625L718.024 60.9269ZM718.783 62.1854L718.554 62.5136L726.084 67.7584L726.312 67.4302L726.541 67.1019L719.011 61.8572L718.783 62.1854ZM726.312 67.4302H725.912V73.129H726.312H726.712V67.4302H726.312ZM726.312 73.129L726.363 72.7322C722.691 72.2651 719.313 70.4609 716.864 67.657L716.562 67.9201L716.261 68.1833C718.838 71.1338 722.394 73.0339 726.262 73.5258L726.312 73.129ZM716.562 67.9201L716.864 67.657C714.414 64.853 713.062 61.2423 713.062 57.5024L712.662 57.5024L712.262 57.5024C712.262 61.4349 713.684 65.2329 716.261 68.1833L716.562 67.9201ZM712.662 57.5024H713.062C713.062 50.94 716.905 45.4441 721.106 41.4245L720.829 41.1355L720.552 40.8465C716.287 44.9277 712.262 50.6196 712.262 57.5024H712.662ZM720.829 41.1355L721.104 41.4255C723.354 39.2883 725.824 37.4006 728.472 35.7944L728.265 35.4524L728.058 35.1104C725.361 36.7463 722.845 38.669 720.553 40.8455L720.829 41.1355ZM728.265 35.4524L728.058 35.7944C730.705 37.4006 733.176 39.2883 735.425 41.4255L735.701 41.1355L735.976 40.8455C733.685 38.669 731.169 36.7463 728.472 35.1104L728.265 35.4524ZM735.701 41.1355L735.424 41.4244C739.622 45.4441 743.465 50.94 743.465 57.5024H743.865H744.265C744.265 50.6196 740.24 44.9277 735.978 40.8466L735.701 41.1355ZM743.865 57.5024L743.465 57.5024C743.465 61.2423 742.113 64.853 739.664 67.657L739.965 67.9201L740.266 68.1833C742.843 65.2329 744.265 61.4349 744.265 57.5024L743.865 57.5024ZM739.965 67.9201L739.664 67.657C737.215 70.4609 733.837 72.2651 730.164 72.7322L730.215 73.129L730.265 73.5258C734.133 73.0339 737.689 71.1338 740.266 68.1833L739.965 67.9201Z" fill="#96C470" mask="url(#path-10-outside-2_199_186)"/>
</svg>
