<svg width="30" height="30" viewBox="0 0 30 30" fill="none" xmlns="http://www.w3.org/2000/svg">
<rect width="30" height="30" rx="6" fill="white" fill-opacity="0.2"/>
<g clip-path="url(#clip0_490_174)">
<path d="M15 7.00725C17.6049 7.00725 17.9107 7.01886 18.9403 7.0653C19.8924 7.10788 20.4072 7.26657 20.7517 7.40204C21.2084 7.58009 21.5336 7.7891 21.8742 8.12971C22.2148 8.47033 22.4277 8.79545 22.6018 9.25218C22.7334 9.59667 22.896 10.1115 22.9386 11.0636C22.985 12.0932 22.9966 12.399 22.9966 15.0039C22.9966 17.6088 22.985 17.9145 22.9386 18.9441C22.896 19.8963 22.7373 20.4111 22.6018 20.7556C22.4238 21.2123 22.2148 21.5374 21.8742 21.878C21.5336 22.2186 21.2084 22.4315 20.7517 22.6057C20.4072 22.7373 19.8924 22.8999 18.9403 22.9424C17.9107 22.9889 17.6049 23.0005 15 23.0005C12.3951 23.0005 12.0893 22.9889 11.0598 22.9424C10.1076 22.8999 9.5928 22.7412 9.24832 22.6057C8.79159 22.4277 8.46646 22.2186 8.12585 21.878C7.78523 21.5374 7.57235 21.2123 7.39818 20.7556C7.26658 20.4111 7.10401 19.8963 7.06143 18.9441C7.01499 17.9145 7.00338 17.6088 7.00338 15.0039C7.00338 12.399 7.01499 12.0932 7.06143 11.0636C7.10401 10.1115 7.26271 9.59667 7.39818 9.25218C7.57622 8.79545 7.78523 8.47033 8.12585 8.12971C8.46646 7.7891 8.79159 7.57622 9.24832 7.40204C9.5928 7.27044 10.1076 7.10788 11.0598 7.0653C12.0893 7.01499 12.399 7.00725 15 7.00725ZM15 5.25C12.3525 5.25 12.0197 5.26161 10.9785 5.30806C9.94115 5.35451 9.23283 5.52094 8.61354 5.76092C7.97102 6.00863 7.42914 6.34538 6.88726 6.88726C6.34538 7.42914 6.01251 7.97489 5.76092 8.61354C5.52094 9.23283 5.35451 9.94115 5.30806 10.9823C5.26161 12.0197 5.25 12.3525 5.25 15C5.25 17.6475 5.26161 17.9803 5.30806 19.0215C5.35451 20.0589 5.52094 20.7672 5.76092 21.3903C6.00864 22.0329 6.34538 22.5747 6.88726 23.1166C7.42914 23.6585 7.97489 23.9914 8.61354 24.243C9.23283 24.4829 9.94115 24.6494 10.9823 24.6958C12.0235 24.7423 12.3525 24.7539 15.0039 24.7539C17.6552 24.7539 17.9842 24.7423 19.0254 24.6958C20.0627 24.6494 20.7711 24.4829 21.3942 24.243C22.0367 23.9952 22.5786 23.6585 23.1205 23.1166C23.6624 22.5747 23.9953 22.029 24.2468 21.3903C24.4868 20.771 24.6533 20.0627 24.6997 19.0215C24.7461 17.9803 24.7578 17.6513 24.7578 15C24.7578 12.3487 24.7461 12.0197 24.6997 10.9785C24.6533 9.94115 24.4868 9.23283 24.2468 8.60967C23.9991 7.96715 23.6624 7.42527 23.1205 6.88339C22.5786 6.3415 22.0329 6.00863 21.3942 5.75705C20.7749 5.51707 20.0666 5.35064 19.0254 5.30419C17.9804 5.26161 17.6475 5.25 15 5.25Z" fill="white"/>
<path d="M14.9997 9.99512C12.2361 9.99512 9.99121 12.2362 9.99121 15.0037C9.99121 17.7711 12.2323 20.0122 14.9997 20.0122C17.7672 20.0122 20.0083 17.7711 20.0083 15.0037C20.0083 12.2362 17.7672 9.99512 14.9997 9.99512ZM14.9997 18.2511C13.2038 18.2511 11.7485 16.7957 11.7485 14.9998C11.7485 13.2038 13.2038 11.7485 14.9997 11.7485C16.7957 11.7485 18.251 13.2038 18.251 14.9998C18.251 16.7957 16.7957 18.2511 14.9997 18.2511Z" fill="white"/>
<path d="M20.206 10.9628C20.8516 10.9628 21.3749 10.4395 21.3749 9.79392C21.3749 9.14834 20.8516 8.625 20.206 8.625C19.5605 8.625 19.0371 9.14834 19.0371 9.79392C19.0371 10.4395 19.5605 10.9628 20.206 10.9628Z" fill="white"/>
</g>
<defs>
<clipPath id="clip0_490_174">
<rect width="19.5" height="19.5" fill="white" transform="translate(5.25 5.25)"/>
</clipPath>
</defs>
</svg>
