<svg width="60" height="60" viewBox="0 0 60 60" fill="none" xmlns="http://www.w3.org/2000/svg">
<path d="M18.9084 28.3592C19.0772 28.1799 19.2796 28.0356 19.5042 27.9345C19.7288 27.8335 19.9711 27.7777 20.2173 27.7703C20.4634 27.7629 20.7086 27.804 20.9389 27.8914C21.1691 27.9788 21.3799 28.1107 21.5592 28.2795C30.1877 36.4076 38.8455 41.353 49.0338 43.8737C50.4084 40.1237 50.5302 35.9963 49.3431 31.9697C47.7681 26.6272 44.1002 21.9725 38.7388 18.5096C33.9529 15.4182 29.1693 14.6131 24.5416 13.835C18.7033 12.853 13.1884 11.9248 7.92556 6.35256C7.33962 5.73615 6.54157 5.48889 5.77868 5.68928C4.90681 5.92365 4.32204 6.61272 4.04196 7.75178C3.38571 10.4178 3.80759 17.8897 5.65329 25.7776C8.61696 38.4502 13.3467 44.8627 16.7931 48.0116C21.2463 52.0768 27.0611 54.328 32.8396 54.328C33.9288 54.3297 35.0166 54.2498 36.0939 54.0889C40.9818 53.3483 45.0506 50.8932 47.3439 47.3213C36.8568 44.5932 27.8978 39.4053 18.9845 31.0135C18.8049 30.8444 18.6605 30.6415 18.5594 30.4165C18.4584 30.1915 18.4027 29.9487 18.3956 29.7022C18.3886 29.4556 18.4302 29.21 18.5182 28.9796C18.6062 28.7491 18.7388 28.5383 18.9084 28.3592ZM54.7771 45.0221C52.8049 44.7186 50.8947 44.3377 49.0349 43.8772C48.6526 44.921 48.1768 45.9282 47.6134 46.8866C47.5279 47.033 47.4377 47.1783 47.3451 47.3213C49.6071 47.9069 51.8976 48.3763 54.2076 48.7276C54.4534 48.7708 54.7053 48.7645 54.9487 48.709C55.192 48.6536 55.4218 48.5501 55.6247 48.4047C55.8275 48.2593 55.9992 48.0749 56.1299 47.8622C56.2605 47.6495 56.3473 47.4129 56.3853 47.1663C56.4233 46.9196 56.4117 46.6679 56.3511 46.4258C56.2905 46.1837 56.1822 45.9561 56.0325 45.7564C55.8829 45.5567 55.6948 45.3889 55.4795 45.2628C55.2641 45.1367 55.0257 45.0549 54.7783 45.0221H54.7771Z" fill="#96C470"/>
</svg>
