<?xml version="1.0" encoding="UTF-8"?>
<svg id="Layer_1" xmlns="http://www.w3.org/2000/svg" width="128.1" height="33.62" version="1.1" viewBox="0 0 128.1 33.62">
  <!-- Generator: Adobe Illustrator 29.5.0, SVG Export Plug-In . SVG Version: 2.1.0 Build 137)  -->
  <path d="M18.3,16.81c3.53-.04,6.84-.18,9-.43,1.33-.11,3.17.36,3.24,2.38.07,1.87-1.3,2.74-2.56,2.95-4.28.54-20.45.68-25.41,0-1.37-.22-2.74-1.04-2.56-3.06.14-1.76,1.98-2.38,3.24-2.27,2.2.22,5.47.36,9,.43h6.05ZM8.8,27.18c0,.29.22.68.83.76,1.58.25,4.36.43,6.23.43,3.2,0,6.52-.4,8.78-1.15,1.58-.54,3.2,0,3.64,1.55.43,1.26-.18,2.66-1.4,3.24-2.81,1.33-7.67,1.58-11.01,1.62-3.35,0-7.92-.32-10.01-1.15-1.04-.4-2.56-1.51-2.81-3.13-.25-1.58-.14-3.35.11-4.79.25-1.48,1.94-2.05,3.42-1.76,1.48.25,2.56,1.51,2.34,3.1-.04.29-.11.79-.11,1.3Z" fill="#a8c35d"/>
  <path d="M32.81,27.43c-.61-1.48-.36-2.7.65-3.56,2.7-2.38,4.14-4.82,4.18-11.3v-7.74c0-1.04.94-2.16,2.7-2.16s2.99.94,2.99,2.16v7.63c0,8.1-2.56,13.21-6.37,15.98-1.37.97-3.53.47-4.14-1.01ZM54.77,18.9c-.04,4.61-.18,8.85-.36,10.62-.22,1.44-1.73,2.7-3.13,2.48-1.62-.25-2.74-1.58-2.7-3.02.47-5.47.58-18.86,0-24.4-.18-1.51,1.04-2.95,2.56-3.1,1.58-.14,3.06.94,3.28,2.45.25,1.87.36,5.4.4,9.29h1.44c-.04-3.49-.14-6.73-.36-8.82-.18-1.51,1.15-2.99,2.56-3.1,1.58-.11,3.06.94,3.28,2.45.65,4.93.4,21.96,0,25.95-.22,1.44-1.66,2.63-3.17,2.48-1.55-.14-2.7-1.58-2.66-3.02.18-2.34.32-6.19.36-10.26h-1.48Z" fill="#a8c35d"/>
  <path d="M75.87,29.59c-2.56,0-4.82-.65-6.12-1.3-1.3-.68-2.05-2.05-2.27-3.38-.58-3.46-.4-16.31-.07-18.75.29-1.62,1.94-2.63,2.99-2.63h11.05c1.04,0,2.7,1.01,2.95,2.59.43,2.56.58,15.37,0,18.75-.14,1.08-.79,2.66-2.27,3.42-1.58.79-3.89,1.33-6.26,1.3ZM77.95,9.07h-4c-.76,0-.79.47-.83.72-.22,3.28-.32,9.9-.04,13.1.04.5.25.79.72.9.43.11,1.01.18,2.16.18.76,0,1.55-.04,1.98-.14.5-.14.72-.47.76-1.01.32-3.46.22-10.08,0-13.07,0-.25-.04-.68-.76-.68ZM93.54,29.7c-.22,1.44-1.73,2.63-3.28,2.48-1.76-.18-2.81-1.58-2.74-3.02.47-5.47.54-19.22,0-24.77-.22-1.51,1.19-2.95,2.63-3.1,1.66-.18,3.17.94,3.38,2.45.68,4.93.4,21.96,0,25.95Z" fill="#a8c35d"/>
  <path d="M109.81,22.82c-2.45-.14-4.86-.43-6.23-1.01-1.12-.47-2.45-1.51-2.81-2.99-.4-1.66-.22-5.72.04-6.91.22-.97,1.3-1.73,2.05-1.73h15.69c.04-.32.04-1.04,0-1.37,0-.18-.11-.36-.4-.36h-14.97c-1.33,0-2.05-1.44-2.05-2.63s.76-2.66,2.05-2.66h17.49c1.01,0,3.1.61,3.46,2.41.36,1.66.32,6.3-.04,7.74-.36,1.37-1.55,2.16-2.63,2.16h-15.44c-.04.32-.04.79-.04,1.12.04.32.18.5.54.58,1.69.32,4.86.4,7.13.4,3.6,0,6.19-.47,8.42-1.01,1.12-.25,2.7.25,3.06,1.94.36,1.55-.68,2.77-1.66,3.1-2.23.79-4.97,1.15-7.63,1.26l-6.05-.04ZM115.86,25.45c3.53-.04,6.8-.18,8.96-.43,1.44-.18,3.2.58,3.28,2.41.07,1.87-1.3,2.74-2.56,2.95-4.28.54-20.45.68-25.41,0-1.37-.22-2.81-1.3-2.56-3.06.25-1.73,1.94-2.48,3.24-2.3,2.16.22,5.47.36,9,.43h6.05Z" fill="#a8c35d"/>
  <g>
    <path d="M115.24,21.5s-2.1.03-3,1.29-.26,3.26-.26,3.26c0,0,2.1-.03,3-1.29s.26-3.26.26-3.26Z" fill="#679e44"/>
    <path d="M111.97,26.05c.04-.92.74-1.78,1.64-1.99" fill="none" stroke="#fff" stroke-linecap="round" stroke-linejoin="round" stroke-width=".2"/>
  </g>
  <path d="M26.65,6c-.25-1.18-.82-2.26-1.6-3.15-.62.6-1.55.81-2.41.45-.09-.04-.17-.09-.26-.14-.55.25-1.19.28-1.79.03-1.14-.47-1.72-1.75-1.37-2.92-.17,0-.34,0-.53.02-.52.03-.84.09-1.92.54-.56.24-1.03.22-1.58.1-1.05-.23-1.5-.57-2.61-.79-2.33-.48-4.1.41-6.08,1.78-.91.63-1.74,1.44-2.19,2.48-.18.43-.3.88-.36,1.34-.23,1.54-.13,3.33.51,4.75.61,1.31,1.66,2.34,2.87,3.04,1.15.65,1.73,1.27,3.01,1.54,1.65.36,3.26.34,4.94.33.68,0,1.39-.04,2.07-.06.49-.01.86-.12,1.33-.16,1.5-.13,2.18-.32,3.68-.94,1.66-.68,2.46-2.05,3.48-3.59.57-.86.89-1.89.95-2.93.03-.57,0-1.15-.13-1.71ZM15.27,11.76c-3.11,0-5.1-2.08-5.1-3.97,0-1.47,1.09-2.09,2.03-2.37.34-.1.68-.2,1.03-.25.35-.05.72-.06,1.06.03.35.1.72.31.86.66.01.03.02.07.03.11.01.04.02.09.04.13s.04.13.08.12c.05,0,.11-.11.13-.16.02-.06.06-.1.08-.16.02-.05.05-.11.08-.15.14-.2.27-.27.47-.41.29-.21.55-.19.85-.17.76.05,1.44.23,2.13.59.67.35,1.31,1,1.31,2.03,0,1.85-1.85,3.97-5.1,3.97Z" fill="#a8c35d"/>
  <ellipse cx="81.29" cy="6.17" rx="1.17" ry="1.72" transform="translate(45.66 79.49) rotate(-68.43)" fill="#fff"/>
  <ellipse cx="121.33" cy="4.84" rx=".52" ry=".76" transform="translate(72.22 115.89) rotate(-68.43)" fill="#fff"/>
  <ellipse cx="125.91" cy="26.05" rx=".27" ry=".39" transform="translate(55.38 133.56) rotate(-68.43)" fill="#fff"/>
  <ellipse cx="8.27" cy="2.31" rx="1.31" ry=".9" transform="translate(-.15 4) rotate(-26.98)" fill="#fff"/>
  <g>
    <path d="M12.49,13.3s2.8-.08,3.98,1.5.3,4.25.3,4.25c0,0-2.8.08-3.98-1.5-1.18-1.59-.3-4.25-.3-4.25Z" fill="#679e44"/>
    <path d="M16.73,19.06c-.28-1.21-1.02-2.3-2.03-3.02" fill="none" stroke="#fff" stroke-linecap="round" stroke-miterlimit="10" stroke-width=".2"/>
  </g>
  <path d="M46.84,27.93s-2.8.08-3.98-1.5-.3-4.25-.3-4.25c0,0,2.8-.08,3.98,1.5,1.18,1.59.3,4.25.3,4.25Z" fill="#679e44"/>
  <path d="M42.61,22.17c.28,1.21,1.02,2.3,2.03,3.02" fill="none" stroke="#fff" stroke-linecap="round" stroke-miterlimit="10" stroke-width=".2"/>
</svg>