<svg width="226" height="32" viewBox="0 0 226 32" fill="none" xmlns="http://www.w3.org/2000/svg">
<path d="M53.0408 23.0039C54.1385 23.0039 55.1211 23.1229 55.9881 23.3535C56.855 23.5881 57.5945 23.9069 58.199 24.3125C58.8036 24.7182 59.2695 25.1915 59.5877 25.7363C59.9058 26.2811 60.0643 26.866 60.0643 27.4902C60.0642 28.1145 59.9058 28.6994 59.5877 29.2441C59.2695 29.789 58.8035 30.2699 58.199 30.6914C57.5906 31.097 56.855 31.4158 55.9881 31.6504C55.1211 31.885 54.1544 32 53.0408 32C51.9275 32 50.9333 31.885 50.0584 31.6504C49.1834 31.4157 48.4393 31.0971 47.8348 30.6914C47.2305 30.27 46.7614 29.7888 46.4354 29.2441C46.1053 28.6994 45.9423 28.1145 45.9422 27.4902C45.9422 26.8659 46.1093 26.2812 46.4354 25.7363C46.7614 25.1916 47.2304 24.7181 47.8348 24.3125C48.4393 23.9068 49.1834 23.5882 50.0584 23.3535C50.9333 23.1229 51.9433 23.0039 53.0408 23.0039ZM223.071 22.7891C224.077 22.7891 225.446 22.8847 225.55 25.0801V26.7656C225.55 29.8439 225.036 31.1014 222.956 31.3838H213.924C211.963 31.1823 211.299 29.6457 211.26 28.3076V25.6445C211.148 23.5448 212.031 22.7853 213.423 22.7852H223.071V22.7891ZM17.2791 23.0352C18.6111 23.0353 18.8895 23.7319 18.8895 24.3125L18.8817 25.5137V27.9795C18.8777 28.3333 18.8541 28.6637 18.8104 28.9658C18.6234 30.4012 18.0742 31.2325 17.1199 31.332C16.8455 31.34 16.491 31.332 16.491 31.332C15.9543 31.332 15.5167 31.0058 15.3934 30.5645C15.3695 30.5167 15.3582 30.4649 15.3582 30.4092V26.0547C15.3582 25.8539 15.3145 25.7933 15.3104 25.7881C15.272 25.7498 15.2112 25.7517 15.2069 25.752L5.91974 25.7363V25.752H5.82502C3.98402 25.736 3.50621 24.9887 3.43049 24.3604C3.42654 24.1788 3.43042 23.8912 3.43049 23.8867C3.43049 23.4174 3.82809 23.0352 4.3133 23.0352H17.2791ZM37.3397 23.0352C38.6718 23.0352 38.95 23.7319 38.95 24.3125L38.9422 25.5137V27.9795C38.9382 28.3333 38.9146 28.6637 38.8709 28.9658C38.684 30.4013 38.1349 31.2325 37.1805 31.332C36.9061 31.34 36.5516 31.332 36.5516 31.332C36.0149 31.3319 35.5772 31.0058 35.4539 30.5645C35.4301 30.5167 35.4188 30.4649 35.4188 30.4092V26.0547C35.4188 25.8527 35.3746 25.7927 35.3709 25.7881C35.3318 25.749 35.2696 25.7518 35.2674 25.752L25.9803 25.7363V25.752H25.8856C24.0445 25.736 23.5668 24.9887 23.491 24.3604C23.4871 24.1789 23.491 23.8913 23.491 23.8867C23.491 23.4175 23.8887 23.0352 24.3738 23.0352H37.3397ZM161.617 9.54883C162.814 9.48923 163.534 10.0303 163.586 11.3066V16.6367H165.916C166.572 16.6367 167.125 16.9425 167.157 17.5469C167.229 18.899 166.529 19.4638 165.666 19.4639H163.59V27.7725C163.59 29.9996 163.017 30.986 161.796 31.1133C161.517 31.1212 161.155 31.1133 161.155 31.1133C160.507 31.1131 159.994 30.6477 159.994 30.0752V11.0449C159.99 10.3211 160.571 9.60053 161.617 9.54883ZM173.962 24.5742C174.304 24.5742 174.582 24.8494 174.582 25.1914V27.335C174.582 27.8001 174.801 28.0746 175.23 28.1621H185.893V28.166C186.331 28.1661 186.68 28.5518 186.68 29.0449C186.68 29.0449 186.681 29.2795 186.657 29.5459C186.562 30.4526 185.599 30.8747 183.965 30.8867C183.925 30.8629 181.69 30.8866 181.678 30.8867H176.46C176.42 30.8947 176.38 30.8984 176.336 30.8984H174.042C172.026 30.8984 171.015 29.9996 171.014 28.1982V25.1914C171.014 24.8533 171.29 24.5742 171.632 24.5742H173.962ZM70.0389 25.0557C70.3728 25.0557 70.6392 25.3301 70.6395 25.668V27.3389C70.6395 27.8042 70.8508 28.0746 71.2684 28.1621H82.1893C82.6069 28.1621 82.949 28.5479 82.949 29.0371C82.949 29.0413 82.9492 29.2741 82.9256 29.5342C82.8341 30.437 81.8991 30.8543 80.3162 30.8662C80.2717 30.8427 78.1349 30.8658 78.1014 30.8662H72.4539C72.4142 30.8742 72.3736 30.8789 72.3338 30.8789H70.1112C68.1585 30.8789 67.1797 29.9838 67.1795 28.1943V25.668C67.1797 25.3302 67.4502 25.0558 67.7801 25.0557H70.0389ZM138.629 25.5293C138.931 25.3185 139.357 25.2465 139.799 25.334C140.196 25.4096 140.518 25.6208 140.685 25.915C140.836 26.1855 140.853 26.5 140.733 26.8301L139.763 29.4551C139.58 29.9399 139.226 30.1981 138.757 30.1982C138.669 30.1982 138.581 30.1907 138.486 30.1748C137.91 30.0674 137.607 29.6734 137.702 29.1445L138.18 26.2529C138.231 25.9468 138.386 25.6963 138.629 25.5293ZM52.9969 25.4414C52.4602 25.4414 51.9629 25.4971 51.5057 25.6045C51.0484 25.7119 50.6503 25.8514 50.3123 26.0264C49.9744 26.2133 49.712 26.436 49.5291 26.6904C49.3462 26.945 49.2547 27.2118 49.2547 27.4941C49.2548 27.7763 49.3464 28.0426 49.5291 28.2891C49.712 28.5356 49.9743 28.7591 50.3123 28.9619C50.6503 29.1488 51.0484 29.2959 51.5057 29.4033C51.9669 29.5107 52.4761 29.5625 52.9969 29.5625C53.5178 29.5625 54.0074 29.5107 54.4647 29.4033C54.9258 29.296 55.3276 29.1487 55.6815 28.9619C56.0195 28.7631 56.2863 28.5356 56.4852 28.2891C56.6799 28.0426 56.78 27.7764 56.7801 27.4941C56.7801 27.2118 56.684 26.945 56.4852 26.6904C56.2863 26.4359 56.0195 26.2133 55.6815 26.0264C55.3276 25.8515 54.9219 25.7118 54.4647 25.6045C54.0074 25.4972 53.5337 25.4414 52.9969 25.4414ZM97.9227 12.623C98.8136 12.5793 99.3468 12.9895 99.3865 13.9639V26.5117C99.3865 28.2097 98.9571 28.9611 98.0506 29.0566C97.8438 29.0606 97.577 29.0566 97.577 29.0566C97.0958 29.0566 96.7138 28.703 96.7137 28.2656V13.7607C96.7098 13.208 97.1435 12.659 97.9188 12.6191L97.9227 12.623ZM134.382 12.5996C135.272 12.5559 135.806 12.9654 135.846 13.9395V26.4873C135.846 28.1855 135.415 28.9378 134.509 29.0332C134.307 29.0371 134.048 29.0334 134.036 29.0332C133.555 29.0332 133.173 28.6787 133.173 28.2412V13.7373C133.169 13.1845 133.602 12.6355 134.378 12.5957L134.382 12.5996ZM117.311 12.5918C118.202 12.5481 118.735 12.9574 118.775 13.9316V17.9922H120.37L120.374 18.001C120.863 17.997 121.273 18.2311 121.297 18.6924C121.348 19.7223 120.831 20.1522 120.187 20.1523H118.779V26.4834C118.779 28.1814 118.35 28.9337 117.443 29.0293C117.236 29.0333 116.97 29.0293 116.97 29.0293C116.488 29.0293 116.106 28.6748 116.106 28.2373V13.7334C116.102 13.1806 116.536 12.6317 117.311 12.5918ZM215.606 25.4854C215.189 25.4854 214.85 25.8237 214.85 26.2412V27.2314C214.85 28.1979 215.114 28.6787 215.635 28.6787H221.171C221.692 28.6785 221.954 28.1977 221.954 27.2314H221.958V26.2412C221.958 25.8236 221.62 25.4854 221.202 25.4854H215.606ZM206.733 25.3936C207.254 25.3936 207.672 25.8558 207.672 26.4404C207.672 26.4538 207.676 26.7714 207.672 27.0166C207.556 28.1023 206.244 28.4841 204.296 28.5C204.248 28.4723 202.019 28.4997 201.997 28.5H193.139C193.117 28.4997 191.202 28.4724 191.151 28.5C189.206 28.4841 188.164 28.1024 188.049 27.0166C188.045 26.7714 188.048 26.454 188.049 26.4404C188.049 25.8559 188.47 25.3938 188.987 25.3936H206.733ZM156.534 11.9668C156.987 11.9668 157.509 12.3971 157.549 13.1846C157.592 14.0871 157.186 14.6282 156.223 14.668H153.153C153.125 14.668 153.102 14.6758 153.07 14.6758H152.938V15.4033C152.938 16.2544 152.895 17.038 152.732 17.8135C152.692 18.0044 152.64 18.1997 152.585 18.3906L152.589 18.3867C154.871 19.7906 157.321 22.3673 157.981 24.2842C158.327 25.2745 158.085 26.0502 157.294 26.4639C157.031 26.5911 156.761 26.6543 156.486 26.6543C156.271 26.6543 156.061 26.6146 155.858 26.5391C155.449 26.384 155.13 26.0902 154.983 25.7324C154.295 24.1575 152.78 22.1009 151.547 20.8203C151.237 21.4287 150.903 22.0173 150.537 22.5898C149.594 24.0137 148.496 25.199 147.235 26.1416C146.674 26.5313 145.748 26.698 145.064 25.9941C144.472 25.3698 144.742 24.4951 145.263 24.002C146.539 22.8207 147.53 21.4403 148.234 19.8613C148.938 18.2826 149.288 16.7952 149.288 15.4033V14.6758C149.196 14.6758 148.823 14.668 148.457 14.668H147.82C147.725 14.668 147.661 14.6718 147.653 14.6758C146.026 14.6638 145.302 14.23 145.207 13.3232C145.203 13.1125 145.207 12.8418 145.207 12.8418C145.207 12.3528 145.558 11.9668 145.991 11.9668H156.534ZM81.0399 9.54492C82.1176 9.49322 82.7626 10.1377 82.8104 11.291V23.6279C82.7945 25.5727 82.2768 26.4403 81.199 26.5557C80.9526 26.5596 80.6371 26.5558 80.6268 26.5557C80.0423 26.5557 79.585 26.1379 79.5848 25.6211V24.6064H75.7264C75.2175 24.6103 74.7124 24.1928 74.6766 23.4414C74.6368 22.5784 75.0151 22.0612 75.91 22.0254H76.3826V22.0215H79.5848V10.8936C79.5808 10.2414 80.1014 9.59276 81.0399 9.54492ZM95.7274 23.9619C96.0853 23.9619 96.3719 24.2885 96.3719 24.7021V25.1074C96.2924 25.871 95.3897 26.1413 94.0496 26.1533C94.0178 26.1334 92.6053 26.1533 92.6053 26.1533H88.5926C88.5801 26.1531 87.2575 26.1336 87.2244 26.1533C85.8842 26.1414 85.1682 25.871 85.0887 25.1074V24.7021C85.0887 24.2885 85.3793 23.9619 85.7332 23.9619H95.7274ZM124.749 13.3438C124.936 12.783 125.703 12.4369 126.3 12.6953C126.586 12.8186 126.785 13.0649 126.936 13.3115C127.08 13.5501 127.191 13.8089 127.286 14.0674C127.286 14.0726 127.299 14.1161 127.322 14.1865L127.37 14.4209H130.082C130.412 14.4209 130.798 14.7511 130.826 15.3516C130.858 16.0396 130.559 16.4536 129.851 16.4814H127.597C127.573 16.4854 127.557 16.4892 127.533 16.4893H127.437V17.042C127.437 17.6903 127.405 18.2873 127.286 18.8799C127.258 19.0269 127.218 19.1743 127.179 19.3213L127.182 19.3252C128.857 20.3911 130.659 22.3558 131.144 23.8193C131.399 24.5748 131.219 25.1633 130.638 25.4814C130.448 25.5767 130.245 25.625 130.047 25.625C129.892 25.625 129.736 25.5968 129.585 25.5371C129.283 25.4178 129.049 25.1951 128.941 24.9209C128.436 23.7198 127.322 22.1571 126.415 21.1787C126.188 21.6398 125.942 22.0891 125.672 22.5264C124.98 23.608 124.172 24.5107 123.246 25.2305C122.836 25.5288 122.151 25.6561 121.65 25.1191C121.213 24.646 121.408 23.9743 121.794 23.6006C122.732 22.7018 123.46 21.6514 123.977 20.4463C124.494 19.2413 124.753 18.1077 124.753 17.0459V16.4893C124.685 16.4853 124.415 16.4814 124.144 16.4814H123.675C123.603 16.4854 123.556 16.4893 123.552 16.4893C122.355 16.4813 121.825 16.151 121.754 15.459V15.0928C121.754 14.7191 122.013 14.4248 122.331 14.4248H124.733V14.3936C124.644 13.5897 124.744 13.3544 124.749 13.3438ZM184.454 9.86328C185.651 9.80376 186.371 10.3446 186.423 11.6211V16.2939C186.423 16.2939 186.395 21.4407 186.423 21.5918C186.407 23.7592 185.83 25.0201 184.629 25.1475C184.35 25.1554 183.988 25.1475 183.988 25.1475C183.34 25.1474 182.827 24.682 182.827 24.1094V20.0967H180.544C179.995 20.1005 179.451 19.6585 179.411 18.8672C179.367 17.9606 179.777 17.4157 180.743 17.376L180.747 17.3682H182.831V15.2129H180.548C179.999 15.2167 179.455 14.7747 179.415 13.9834C179.371 13.0767 179.781 12.532 180.747 12.4922H182.831V11.3584C182.827 10.6347 183.408 9.91498 184.454 9.86328ZM112.364 13.4385C113.12 13.4385 113.498 13.7809 113.498 14.457V15.4189C113.498 15.4189 113.299 19.4724 110.598 22.0059C110.233 22.3637 109.847 22.7053 109.449 23.0273C108.435 23.8148 107.372 24.3997 106.259 24.7695C105.769 24.9125 105.086 24.8048 104.792 24.1328C104.538 23.5404 104.946 22.9797 105.431 22.749C111.099 20.0684 111.015 15.8926 111.015 15.8926C111.059 15.4271 110.782 15.396 110.777 15.3955H106.935C105.766 15.3876 105.241 15.0732 105.174 14.417V14.0674C105.174 13.7134 105.428 13.4346 105.738 13.4346H112.356L112.364 13.4385ZM77.4881 18.8242C77.9375 18.8242 78.2996 19.2339 78.2996 19.7549C78.2998 19.7678 78.3035 20.05 78.2996 20.2676C78.2001 21.2299 77.063 21.572 75.3768 21.584C75.3333 21.5603 73.5809 21.5837 73.5594 21.584H72.3143V22.6377C72.3023 24.0615 71.8289 24.6977 70.8465 24.7812C70.62 24.7851 70.3324 24.7814 70.3221 24.7812C69.7893 24.7812 69.3711 24.4754 69.3709 24.0977V21.584H68.0711C68.0711 21.584 66.3882 21.5601 66.3485 21.584C64.6623 21.572 63.7634 21.2299 63.6639 20.2676C63.66 20.0501 63.6637 19.7679 63.6639 19.7549C63.6639 19.2339 64.026 18.8242 64.4754 18.8242H77.4881ZM58.8319 10.1494H58.9627C59.4876 10.1454 60.0127 10.5791 60.0487 11.3584C60.0924 12.2493 59.6989 12.7864 58.7723 12.8262H49.7518C49.3502 12.8263 49.0242 13.1608 49.0242 13.5703V14.6045C49.0244 15.1729 49.327 15.459 49.9393 15.459H59.532C59.9496 15.4591 60.2879 15.841 60.2879 16.3262C60.288 16.33 60.2919 16.5984 60.2879 16.8037C60.1963 17.7023 59.2414 18.1355 57.6707 18.1475C57.6588 18.1435 57.4518 18.1396 57.1893 18.1436H54.2938V19.7627H62.2244L62.2283 19.7666C62.6778 19.7666 63.0399 20.1763 63.0399 20.6973C63.04 20.7071 63.0438 20.9911 63.0399 21.21C62.9404 22.1724 61.8023 22.5144 60.116 22.5264H45.4803C43.7942 22.5144 42.8951 22.1724 42.7957 21.21C42.7918 20.9912 42.7956 20.7071 42.7957 20.6973C42.7957 20.1763 43.1579 19.7667 43.6072 19.7666H51.5379V18.1475H48.4793C46.5266 18.1474 45.5487 17.2526 45.5487 15.4629V12.5762C45.5487 12.5762 45.4689 11.7487 45.95 10.9971C46.3436 10.3809 47.0152 10.2011 47.2342 10.1572C47.2779 10.1453 47.3223 10.1455 47.366 10.1455L58.8319 10.1494ZM173.386 10.9805C176.416 10.9807 178.874 13.5185 178.874 16.6484C178.874 19.7783 176.416 22.3152 173.386 22.3154C170.355 22.3154 167.897 19.7784 167.897 16.6484C167.897 13.5184 170.355 10.9805 173.386 10.9805ZM90.3787 13.3232C92.92 13.3234 94.9803 15.2564 94.9803 17.6426C94.9803 20.0288 92.92 21.9618 90.3787 21.9619C87.8373 21.9619 85.7772 20.0289 85.7772 17.6426C85.7772 15.2563 87.8373 13.3232 90.3787 13.3232ZM16.9403 9.54883C18.1373 9.48918 18.8572 10.0302 18.909 11.3066V13.085C18.9088 13.121 18.8814 18.2203 18.909 18.3818C18.8931 20.5491 18.3169 21.81 17.116 21.9375C16.8393 21.9454 16.4797 21.9376 16.4754 21.9375C15.8271 21.9375 15.3143 21.4721 15.3143 20.8994V11.0449C15.3103 10.3212 15.8906 9.60067 16.9363 9.54883H16.9403ZM37.0408 9.55273C38.2378 9.49308 38.9577 10.0342 39.0096 11.3105V12.0986H40.8631C41.4119 12.0947 41.957 12.5358 41.9969 13.3271C42.0406 14.2339 41.6303 14.7786 40.6639 14.8184H39.0135V16.2705H40.8709C41.4197 16.2665 41.9648 16.7078 42.0047 17.499C42.0484 18.4057 41.6388 18.9513 40.6727 18.9912H38.9901C38.8747 20.7804 38.3019 21.818 37.2205 21.9336C36.9451 21.9415 36.5875 21.9338 36.5799 21.9336C36.5601 21.9336 36.5401 21.9297 36.5203 21.9297H36.4725C35.8878 21.9297 35.4266 21.5122 35.4266 20.9912V20.9717C35.4226 20.9518 35.4188 20.9272 35.4188 20.9033V11.0488C35.4188 11.025 35.4266 10.9966 35.4266 10.9688C35.4266 10.5394 35.6489 10.1179 36.0662 9.85938C36.3207 9.6884 36.6472 9.57266 37.0408 9.55273ZM223.907 9.59277C225.104 9.53328 225.824 10.2491 225.876 11.5254V16.3301C225.876 16.3301 225.848 18.4776 225.876 18.5293C225.86 20.6848 225.283 21.6432 224.082 21.7705C223.803 21.7785 223.441 21.7705 223.441 21.7705C222.793 21.7704 222.28 21.3051 222.28 20.7324V11.084C222.276 10.3602 222.857 9.64056 223.903 9.58887L223.907 9.59277ZM203.707 11.4141H203.842C204.386 11.4101 204.924 11.8483 204.964 12.6318C205.011 13.5304 204.606 14.0715 203.647 14.1113H194.337C193.919 14.1113 193.585 14.4449 193.585 14.8584V17.9648C193.585 18.5375 193.9 18.8242 194.532 18.8242H204.434C204.864 18.8242 205.215 19.21 205.215 19.6992C205.215 19.712 205.219 19.9741 205.215 20.1797C205.119 21.0865 204.136 21.5203 202.513 21.5322C202.5 21.5283 202.286 21.5244 202.016 21.5283H193.016C191 21.5283 189.99 20.6295 189.99 18.8281L189.998 18.8242V13.8486C189.998 13.8486 189.914 13.0213 190.411 12.2617C190.817 11.6453 191.509 11.4617 191.736 11.418C191.78 11.4062 191.823 11.4062 191.871 11.4062H203.707V11.4141ZM217.774 10.4873C218.784 10.4874 219.289 10.9411 219.289 11.8398V13.1162C219.289 15.8525 218.514 17.2207 216.967 17.2207H211.287C211.275 17.2221 210.898 17.2716 210.957 17.9014C211.005 18.5335 211.108 18.8359 211.55 18.8359H211.828C211.86 18.8399 211.892 18.8398 211.924 18.8398H219.997C220.41 18.8398 220.749 19.2095 220.749 19.6787C220.749 19.6787 220.753 19.9378 220.749 20.1406C220.657 21.0113 219.961 21.4285 218.398 21.4404H210.786C208.77 21.4403 207.76 19.9294 207.76 18.1279V16.1748C207.752 14.9661 208.626 14.6762 209.259 14.6602H215.794C216.136 14.6599 216.322 14.3692 216.37 13.749C216.43 13.1246 216.052 13.0889 216.052 13.0889H210.146C208.583 13.0769 207.887 12.6591 207.796 11.7881C207.792 11.5929 207.796 11.3366 207.796 11.3271C207.796 10.858 208.133 10.4875 208.547 10.4873H217.774ZM6.55646 10.293C7.34392 10.3407 8.27857 10.7109 8.2547 12.1982C8.2387 12.9935 7.91697 13.8088 7.63068 14.5205C7.61875 14.5483 7.60257 14.5806 7.59064 14.6084C9.58705 15.726 11.5159 17.1934 12.2039 18.7285C12.6334 19.6591 12.4659 20.4389 11.7342 20.9121C11.4957 21.0591 11.2328 21.1461 10.9705 21.1699C10.7639 21.1897 10.5531 21.1699 10.3504 21.1143C9.94484 20.9989 9.60642 20.7403 9.43146 20.4062C8.77165 19.2021 7.60785 17.8429 6.48713 16.7656C5.30553 18.7772 2.88576 20.8919 2.32892 21.1982C1.74432 21.5204 0.829582 21.5798 0.244939 20.8203C-0.264119 20.1522 0.0934417 19.3328 0.650213 18.9072C4.69893 15.8249 4.80646 11.5811 4.80646 11.5811C4.8822 10.8693 5.53053 10.2293 6.55646 10.293ZM26.8641 9.93066C30.0416 9.9309 32.619 12.4486 32.619 15.5586C32.6189 18.6646 30.0416 21.1863 26.8641 21.1865C23.6864 21.1865 21.1092 18.6647 21.1092 15.5586C21.1092 12.4525 23.6864 9.93066 26.8641 9.93066ZM90.4266 15.5107C89.1817 15.5107 88.1756 16.4653 88.1756 17.6426C88.1756 18.8198 89.1817 19.7744 90.4266 19.7744C91.6712 19.7742 92.6775 18.8197 92.6776 17.6426C92.6776 16.4655 91.6713 15.5109 90.4266 15.5107ZM173.389 13.8525C172.105 13.8525 171.062 15.1053 171.062 16.6484C171.062 18.1915 172.105 19.4443 173.389 19.4443C174.674 19.4442 175.716 18.1914 175.716 16.6484C175.716 15.1054 174.674 13.8527 173.389 13.8525ZM26.8641 12.7822C25.3687 12.7822 24.159 14.0234 24.159 15.5586C24.159 17.0898 25.3687 18.335 26.8641 18.335C28.3593 18.3347 29.5682 17.0896 29.5682 15.5586C29.5682 14.0275 28.3593 12.7825 26.8641 12.7822ZM70.6951 9.43359C71.6018 9.43359 72.4255 9.54884 73.1492 9.77148C73.873 9.99815 74.4977 10.3125 75.0028 10.7021C75.5118 11.0959 75.9061 11.5657 76.1766 12.0986C76.4469 12.6314 76.5818 13.212 76.5819 13.8203C76.5819 14.4288 76.447 15.01 76.1766 15.543C75.9061 16.0759 75.5118 16.5494 75.0028 16.959C74.4977 17.3526 73.8729 17.662 73.1492 17.8887C72.4294 18.1114 71.6178 18.2275 70.6951 18.2275C69.7726 18.2275 68.9374 18.1114 68.2137 17.8887C67.4861 17.662 66.8574 17.3487 66.3524 16.959L66.3485 16.9541C65.8357 16.5446 65.4382 16.0677 65.1639 15.5391C64.8855 15.0061 64.7459 14.4249 64.7459 13.8164C64.7459 13.208 64.8855 12.6276 65.1639 12.0947C65.4423 11.5658 65.8394 11.0959 66.3485 10.7021C66.8575 10.3084 67.482 9.99817 68.2137 9.77148C68.9414 9.54483 69.7885 9.43363 70.6951 9.43359ZM70.66 12.0107C70.2344 12.0107 69.8325 12.0588 69.4666 12.1582C69.1048 12.2536 68.7828 12.3849 68.5164 12.5439C68.2619 12.707 68.0589 12.9062 67.9197 13.1289L67.9237 13.1328C67.7846 13.3554 67.7167 13.5858 67.7166 13.8242C67.7166 14.0628 67.7845 14.2941 67.9197 14.5049C68.0589 14.7235 68.2619 14.9266 68.5242 15.1055C68.7827 15.2724 69.1009 15.4074 69.4666 15.5068C70.1824 15.7017 71.0931 15.7056 71.8328 15.5068C72.1987 15.4074 72.5252 15.2725 72.7996 15.1016C73.058 14.9267 73.2686 14.7236 73.4197 14.501C73.5629 14.2902 73.6385 14.0668 73.6385 13.8242C73.6384 13.5818 73.5668 13.3593 73.4197 13.1367C73.2686 12.9101 73.0621 12.711 72.7996 12.5439C72.5292 12.3888 72.2026 12.2576 71.8367 12.1582C71.467 12.0628 71.0854 12.0108 70.66 12.0107ZM12.5779 0C13.8227 0.000115013 14.8289 1.00624 14.8289 2.25098C14.8289 3.49575 13.8187 4.50184 12.5779 4.50195C11.3331 4.50195 10.327 3.49582 10.327 2.25098C10.327 1.00617 11.3331 0 12.5779 0ZM32.6746 0C33.9192 0.000231223 34.9256 1.00631 34.9256 2.25098C34.9256 3.49568 33.9153 4.50172 32.6746 4.50195C31.4298 4.50195 30.4227 3.49582 30.4227 2.25098C30.4227 1.00617 31.4298 0 32.6746 0ZM52.7664 0C54.0112 0 55.0174 1.00617 55.0174 2.25098C55.0174 3.49582 54.0073 4.50195 52.7664 4.50195C51.5217 4.50181 50.5154 3.49573 50.5154 2.25098C50.5155 1.00626 51.5217 0.000143128 52.7664 0ZM72.8631 0C74.1079 0 75.114 1.00617 75.1141 2.25098C75.1141 3.49582 74.104 4.50195 72.8631 4.50195C71.6183 4.50193 70.6121 3.4958 70.6121 2.25098C70.6122 1.00619 71.6183 2.79358e-05 72.8631 0ZM155.313 0C156.558 8.70814e-05 157.564 1.00623 157.564 2.25098C157.564 3.49577 156.554 4.50187 155.313 4.50195C154.068 4.50195 153.062 3.49582 153.062 2.25098C153.062 1.00617 154.068 0 155.313 0ZM175.406 0C176.651 0.000249814 177.657 1.00633 177.657 2.25098C177.657 3.49566 176.647 4.5017 175.406 4.50195C174.161 4.50195 173.154 3.49582 173.154 2.25098C173.154 1.00617 174.161 0 175.406 0ZM195.502 0C196.747 0 197.753 1.00617 197.753 2.25098C197.753 3.49582 196.743 4.50195 195.502 4.50195C194.257 4.50178 193.251 3.49571 193.251 2.25098C193.251 1.00628 194.257 0.000174329 195.502 0ZM215.598 0C216.843 3.18022e-06 217.849 1.00617 217.849 2.25098C217.849 3.49582 216.839 4.50195 215.598 4.50195C214.354 4.50195 213.347 3.49582 213.347 2.25098C213.348 1.00617 214.354 0 215.598 0Z" fill="#A01749"/>
</svg>
