<svg width="25" height="25" viewBox="0 0 25 25" fill="none" xmlns="http://www.w3.org/2000/svg">
<path d="M11.3163 0.699842C11.6097 -0.233546 12.9307 -0.233544 13.2242 0.699843L15.4178 7.67621C15.5488 8.09283 15.935 8.37625 16.3717 8.37625H23.5385C24.4992 8.37625 24.9072 9.59913 24.1389 10.176L18.2851 14.5708C17.946 14.8253 17.8043 15.266 17.9315 15.6704L20.154 22.7388C20.4456 23.6659 19.3769 24.4219 18.5997 23.8384L12.8706 19.5372C12.5149 19.2702 12.0255 19.2702 11.6698 19.5372L5.94071 23.8384C5.16351 24.4219 4.09485 23.6659 4.38637 22.7388L6.60892 15.6704C6.73609 15.266 6.5944 14.8253 6.25535 14.5708L0.401535 10.176C-0.366797 9.59913 0.041157 8.37625 1.00192 8.37625H8.16866C8.60539 8.37625 8.99161 8.09283 9.12261 7.67621L11.3163 0.699842Z" fill="#FFD153"/>
</svg>
