<svg width="27" height="36" viewBox="0 0 27 36" fill="none" xmlns="http://www.w3.org/2000/svg">
<path d="M0 1.98363C0 1.45754 0.209961 0.952995 0.583694 0.580992C0.957427 0.208989 1.46432 0 1.99286 0H24.5786C25.1071 0 25.614 0.208989 25.9877 0.580992C26.3615 0.952995 26.5714 1.45754 26.5714 1.98363C26.5714 2.50972 26.3615 3.01427 25.9877 3.38627C25.614 3.75827 25.1071 3.96726 24.5786 3.96726H1.99286C1.46432 3.96726 0.957427 3.75827 0.583694 3.38627C0.209961 3.01427 0 2.50972 0 1.98363ZM14.694 9.83881L24.6583 19.757C24.8432 19.941 24.9899 20.1596 25.09 20.4001C25.1901 20.6406 25.2416 20.8984 25.2416 21.1587C25.2416 21.4191 25.1901 21.6768 25.09 21.9174C24.9899 22.1579 24.8432 22.3764 24.6583 22.5605C24.4733 22.7446 24.2538 22.8906 24.0122 22.9902C23.7705 23.0898 23.5115 23.1411 23.25 23.1411C22.9885 23.1411 22.7295 23.0898 22.4878 22.9902C22.2462 22.8906 22.0267 22.7446 21.8417 22.5605L15.2786 16.0304V33.7217C15.2786 34.2478 15.0686 34.7524 14.6949 35.1244C14.3211 35.4964 13.8143 35.7054 13.2857 35.7054C12.7572 35.7054 12.2503 35.4964 11.8766 35.1244C11.5028 34.7524 11.2929 34.2478 11.2929 33.7217V16.0304L4.72971 22.5605C4.35621 22.9323 3.84964 23.1411 3.32143 23.1411C2.79322 23.1411 2.28664 22.9323 1.91314 22.5605C1.53964 22.1887 1.32981 21.6845 1.32981 21.1587C1.32981 20.8984 1.38133 20.6406 1.48141 20.4001C1.5815 20.1596 1.7282 19.941 1.91314 19.757L11.8774 9.83881C12.2511 9.46734 12.7576 9.25869 13.2857 9.25869C13.8138 9.25869 14.3203 9.46734 14.694 9.83881Z" fill="#61C200"/>
</svg>
