<svg width="60" height="60" viewBox="0 0 60 60" fill="none" xmlns="http://www.w3.org/2000/svg">
<g clip-path="url(#clip0_199_217)">
<path d="M0 11.25V15H35.625V43.125H24.0825C23.2463 39.9019 20.3475 37.5 16.875 37.5C13.4025 37.5 10.5037 39.9019 9.6675 43.125H7.5V33.75H3.75V46.875H9.6675C10.5037 50.0981 13.4025 52.5 16.875 52.5C20.3475 52.5 23.2463 50.0981 24.0825 46.875H39.6675C40.5037 50.0981 43.4025 52.5 46.875 52.5C50.3475 52.5 53.2463 50.0981 54.0825 46.875H60V31.5825L59.8819 31.2881L56.1319 20.0381L55.725 18.75H39.375V11.25H0ZM1.875 18.75V22.5H18.75V18.75H1.875ZM39.375 22.5H53.0269L56.25 32.1094V43.125H54.0825C53.2463 39.9019 50.3475 37.5 46.875 37.5C43.4025 37.5 40.5037 39.9019 39.6675 43.125H39.375V22.5ZM3.75 26.25V30H15V26.25H3.75ZM16.875 41.25C18.9694 41.25 20.625 42.9056 20.625 45C20.625 47.0944 18.9694 48.75 16.875 48.75C14.7806 48.75 13.125 47.0944 13.125 45C13.125 42.9056 14.7806 41.25 16.875 41.25ZM46.875 41.25C48.9694 41.25 50.625 42.9056 50.625 45C50.625 47.0944 48.9694 48.75 46.875 48.75C44.7806 48.75 43.125 47.0944 43.125 45C43.125 42.9056 44.7806 41.25 46.875 41.25Z" fill="white"/>
</g>
<defs>
<clipPath id="clip0_199_217">
<rect width="60" height="60" fill="white"/>
</clipPath>
</defs>
</svg>
