<svg width="23" height="28" viewBox="0 0 23 28" fill="none" xmlns="http://www.w3.org/2000/svg">
<path d="M0.658769 13.7724C1.08071 14.1942 1.6529 14.4312 2.24952 14.4312C2.84614 14.4312 3.41833 14.1942 3.84027 13.7724L8.99952 8.61314L8.99952 25.6816C8.99952 26.2784 9.23657 26.8507 9.65853 27.2726C10.0805 27.6946 10.6528 27.9316 11.2495 27.9316C11.8463 27.9316 12.4186 27.6946 12.8405 27.2726C13.2625 26.8507 13.4995 26.2784 13.4995 25.6816L13.4995 8.61314L18.6588 13.7724C19.0807 14.1943 19.6529 14.4313 20.2495 14.4313C20.8462 14.4313 21.4184 14.1943 21.8403 13.7724C22.2622 13.3505 22.4992 12.7783 22.4992 12.1816C22.4992 11.585 22.2622 11.0128 21.8403 10.5909L11.2495 0.000140652L0.658769 10.5909C0.236959 11.0128 -7.14533e-07 11.585 -6.88454e-07 12.1816C-6.62375e-07 12.7783 0.236959 13.3505 0.658769 13.7724Z" fill="white"/>
</svg>
