<svg width="24" height="24" viewBox="0 0 24 24" fill="none" xmlns="http://www.w3.org/2000/svg">
<path fill-rule="evenodd" clip-rule="evenodd" d="M17.871 6.12878C17.3084 5.56637 16.5455 5.25042 15.75 5.25042C14.9545 5.25042 14.1916 5.56637 13.629 6.12878L6.12902 13.6288C5.84249 13.9055 5.61395 14.2366 5.45672 14.6026C5.29949 14.9686 5.21673 15.3622 5.21327 15.7606C5.20981 16.1589 5.28572 16.554 5.43656 16.9226C5.5874 17.2913 5.81016 17.6263 6.09184 17.908C6.37352 18.1896 6.70847 18.4124 7.07716 18.5632C7.44585 18.7141 7.84089 18.79 8.23923 18.7865C8.63757 18.7831 9.03123 18.7003 9.39724 18.5431C9.76325 18.3859 10.0943 18.1573 10.371 17.8708L11.205 17.0383C11.4183 16.8396 11.7004 16.7314 11.9918 16.7365C12.2833 16.7417 12.5613 16.8597 12.7675 17.0658C12.9736 17.272 13.0916 17.55 13.0968 17.8415C13.1019 18.1329 12.9937 18.415 12.795 18.6283L11.9625 19.4623C10.9779 20.4469 9.64248 21 8.25002 21C6.85757 21 5.52214 20.4469 4.53752 19.4623C3.55291 18.4777 2.99976 17.1422 2.99976 15.7498C2.99976 14.3573 3.55291 13.0219 4.53752 12.0373L12.0375 4.53728C13.0221 3.55266 14.3576 2.99951 15.75 2.99951C17.1425 2.99951 18.4779 3.55266 19.4625 4.53728C20.4471 5.5219 21.0003 6.85732 21.0003 8.24978C21.0003 9.64224 20.4471 10.9777 19.4625 11.9623L16.5045 14.9203C15.9068 15.5182 15.096 15.8542 14.2506 15.8543C13.4051 15.8545 12.5942 15.5188 11.9963 14.921C11.3983 14.3233 11.0624 13.5125 11.0622 12.6671C11.0621 11.8216 11.3978 11.0107 11.9955 10.4128L14.955 7.45478C15.058 7.34425 15.1822 7.2556 15.3202 7.19411C15.4582 7.13262 15.6072 7.09956 15.7582 7.09689C15.9093 7.09423 16.0593 7.12201 16.1994 7.1786C16.3395 7.23518 16.4668 7.31939 16.5736 7.42622C16.6804 7.53305 16.7646 7.6603 16.8212 7.80038C16.8778 7.94046 16.9056 8.09051 16.9029 8.24156C16.9002 8.39262 16.8672 8.54159 16.8057 8.67959C16.7442 8.81759 16.6556 8.94179 16.545 9.04478L13.587 12.0043C13.4198 12.1818 13.3284 12.4175 13.3321 12.6613C13.3359 12.9052 13.4345 13.1379 13.607 13.3103C13.7795 13.4826 14.0124 13.5809 14.2563 13.5844C14.5001 13.5879 14.7357 13.4962 14.913 13.3288L17.871 10.3708C18.4334 9.8082 18.7494 9.04527 18.7494 8.24978C18.7494 7.45429 18.4334 6.69136 17.871 6.12878Z" fill="#96C470"/>
</svg>
