<svg width="24" height="24" viewBox="0 0 24 24" fill="none" xmlns="http://www.w3.org/2000/svg">
<path d="M2 9.99996V14C2 15.1 2.9 16 4 16H6V7.99996H4C2.9 7.99996 2 8.89996 2 9.99996ZM21.57 3.17996C21.4357 3.08711 21.2808 3.02854 21.1187 3.00936C20.9566 2.99019 20.7922 3.01099 20.64 3.06996L8 7.92996V16.07L8.82 16.38L8.35 17.78C8.02 18.78 8.52 19.87 9.51 20.27L12.65 21.53C12.89 21.62 13.14 21.67 13.39 21.67C13.68 21.67 13.97 21.61 14.23 21.48C14.73 21.25 15.11 20.82 15.28 20.3L15.7 19.03L20.63 20.93C20.75 20.97 20.87 21 20.99 21C21.19 21 21.39 20.94 21.56 20.82C21.83 20.63 21.99 20.32 21.99 20V3.99996C21.99 3.66996 21.83 3.35996 21.56 3.17996H21.57ZM13.39 19.68L10.25 18.42L10.69 17.1L13.84 18.31L13.39 19.67V19.68Z" fill="#66AA41"/>
</svg>
