<svg width="13" height="14" viewBox="0 0 13 14" fill="none" xmlns="http://www.w3.org/2000/svg">
<path d="M6.5 0C10.0898 0 12.9999 2.97135 13 6.63672C13 8.93147 11.8589 10.9536 10.125 12.1455C10.1416 12.1884 10.156 12.2329 10.166 12.2793C10.3327 13.056 9.47417 13.6511 8.8125 13.2178C8.69485 13.1407 8.60563 13.0441 8.54102 12.9375C7.89894 13.1542 7.21323 13.2734 6.5 13.2734C2.91015 13.2734 0 10.3021 0 6.63672C5.98155e-05 2.97136 2.91018 1.2104e-05 6.5 0Z" fill="#96C470"/>
<path d="M8.39442 5.34513C8.39442 6.11513 7.80202 6.75763 7.01474 6.90792C6.95365 6.49407 6.7518 6.12154 6.45406 5.83305C6.76417 5.40211 7.29547 5.11719 7.89947 5.11719H8.14694C8.28382 5.11719 8.39442 5.21905 8.39442 5.34513ZM4.43481 5.801C4.43481 5.67492 4.5454 5.57306 4.68229 5.57306H4.92976C5.88641 5.57306 6.66209 6.2875 6.66209 7.16863V8.53625C6.66209 8.66233 6.5515 8.76419 6.41461 8.76419C6.27773 8.76419 6.16714 8.66233 6.16714 8.53625V7.39656C5.21049 7.39656 4.43481 6.68212 4.43481 5.801Z" fill="white"/>
<ellipse cx="0.210925" cy="0.125835" rx="0.210925" ry="0.125835" transform="matrix(0.999694 0.0247254 -0.0292209 0.999573 7.45093 5.4458)" fill="#96C470"/>
</svg>
