<svg width="24" height="24" viewBox="0 0 24 24" fill="none" xmlns="http://www.w3.org/2000/svg">
<path d="M4.3 19.7C4.11667 19.5167 4.025 19.2833 4.025 19C4.025 18.7167 4.11667 18.4833 4.3 18.3L5.675 16.925C5.14167 16.2417 4.72933 15.4833 4.438 14.65C4.14667 13.8167 4.00067 12.9333 4 12C4 9.76667 4.775 7.875 6.325 6.325C7.875 4.775 9.76667 4 12 4H20V12C20 14.2333 19.225 16.125 17.675 17.675C16.125 19.225 14.2333 20 12 20C11.0667 20 10.1877 19.8543 9.363 19.563C8.53833 19.2717 7.784 18.859 7.1 18.325L5.7 19.7C5.51667 19.8833 5.28333 19.975 5 19.975C4.71667 19.975 4.48333 19.8833 4.3 19.7ZM8.35 15.65C8.53333 15.8667 8.76667 15.9707 9.05 15.962C9.33333 15.9533 9.575 15.8493 9.775 15.65L13.7 11.725C13.9 11.525 14 11.2873 14 11.012C14 10.7367 13.9 10.4993 13.7 10.3C13.5167 10.1167 13.2833 10.025 13 10.025C12.7167 10.025 12.4833 10.1167 12.3 10.3L8.35 14.25C8.16667 14.4333 8.075 14.6627 8.075 14.938C8.075 15.2133 8.16667 15.4507 8.35 15.65Z" fill="#5D3716"/>
</svg>
