<svg width="54" height="54" viewBox="0 0 54 54" fill="none" xmlns="http://www.w3.org/2000/svg">
<rect width="54" height="54" rx="27" fill="white"/>
<path opacity="0.15" d="M10.125 51.1875C10.125 51.6351 11.9029 52.0643 15.0676 52.3807C18.2322 52.6972 22.5245 52.875 27 52.875C31.4755 52.875 35.7677 52.6972 38.9324 52.3807C42.0971 52.0643 43.875 51.6351 43.875 51.1875C43.875 50.7399 42.0971 50.3107 38.9324 49.9943C35.7677 49.6778 31.4755 49.5 27 49.5C22.5245 49.5 18.2322 49.6778 15.0676 49.9943C11.9029 50.3107 10.125 50.7399 10.125 51.1875Z" fill="#45413C"/>
<path d="M27 35.1226C30.5446 35.1226 33.9441 36.5307 36.4505 39.0371C38.9569 41.5435 40.365 44.9429 40.365 48.4876V50.6251H13.635V48.4876C13.635 44.9429 15.0431 41.5435 17.5495 39.0371C20.056 36.5307 23.4554 35.1226 27 35.1226Z" fill="#6DD627"/>
<path d="M27 35.1226C23.4554 35.1226 20.056 36.5307 17.5495 39.0371C15.0431 41.5435 13.635 44.9429 13.635 48.4876V50.6251H13.8038C14.2918 47.4754 15.8904 44.6042 18.3105 42.5302C20.7306 40.4562 23.8128 39.3162 27 39.3162C30.1873 39.3162 33.2694 40.4562 35.6895 42.5302C38.1097 44.6042 39.7082 47.4754 40.1963 50.6251H40.365V48.4876C40.365 44.9429 38.9569 41.5435 36.4505 39.0371C33.9441 36.5307 30.5446 35.1226 27 35.1226Z" fill="#46B000"/>
<path d="M36.4505 39.0371C33.9441 36.5307 30.5446 35.1226 27 35.1226C23.4554 35.1226 20.056 36.5307 17.5495 39.0371C15.0431 41.5435 13.635 44.9429 13.635 48.4876V50.6251H40.365V48.4876C40.365 44.9429 38.9569 41.5435 36.4505 39.0371Z" stroke="#45413C" stroke-width="0.5" stroke-linecap="round" stroke-linejoin="round"/>
<path d="M33.6825 36.9111V44.0661C33.6825 44.3645 33.564 44.6506 33.353 44.8616C33.142 45.0726 32.8559 45.1911 32.5575 45.1911H21.4425C21.1441 45.1911 20.858 45.0726 20.647 44.8616C20.436 44.6506 20.3175 44.3645 20.3175 44.0661V36.9111C19.4318 37.4263 18.6056 38.0375 17.8538 38.7336V50.6249H36.1463V38.7336C35.3944 38.0375 34.5682 37.4263 33.6825 36.9111Z" fill="#00B8F0"/>
<path d="M33.6825 41.0849C34.5708 41.6004 35.3974 42.2157 36.1463 42.9186V38.7336C35.3944 38.0375 34.5682 37.4263 33.6825 36.9111V41.0849ZM20.3175 41.0849V36.9111C19.4318 37.4263 18.6056 38.0375 17.8538 38.7336V42.9186C18.6026 42.2157 19.4292 41.6004 20.3175 41.0849Z" fill="#009FD9"/>
<path d="M33.6825 44.0661V36.9111C34.5682 37.4263 35.3944 38.0375 36.1463 38.7336V50.6249H17.8538V38.7336C18.6056 38.0375 19.4318 37.4263 20.3175 36.9111V44.0661C20.3175 44.3645 20.436 44.6506 20.647 44.8616C20.858 45.0726 21.1441 45.1911 21.4425 45.1911H32.5575C32.8559 45.1911 33.142 45.0726 33.353 44.8616C33.564 44.6506 33.6825 44.3645 33.6825 44.0661Z" stroke="#45413C" stroke-width="0.5" stroke-linecap="round" stroke-linejoin="round"/>
<path d="M27 33.7501C27 33.7501 21.375 33.6826 21.375 36.8889C21.4817 39.2544 22.332 41.526 23.805 43.3801L27 40.6464L30.2512 43.3801C31.7242 41.526 32.5746 39.2544 32.6812 36.8889C32.6812 33.6826 27 33.7501 27 33.7501Z" fill="#46B000" stroke="#45413C" stroke-width="0.5" stroke-linecap="round" stroke-linejoin="round"/>
<path d="M27.0001 40.6465L24.4688 38.1152C24.3646 38.0101 24.2821 37.8854 24.2261 37.7484C24.1701 37.6113 24.1417 37.4645 24.1426 37.3165V33.9415C24.1426 33.1836 24.4437 32.4568 24.9795 31.9209C25.5154 31.385 26.2422 31.084 27.0001 31.084C27.3763 31.084 27.7488 31.1583 28.0962 31.3026C28.4436 31.4469 28.7592 31.6584 29.0246 31.9249C29.2901 32.1914 29.5004 32.5078 29.6433 32.8558C29.7863 33.2037 29.8591 33.5765 29.8576 33.9527V37.3277C29.8585 37.4758 29.8301 37.6226 29.7741 37.7596C29.7181 37.8967 29.6356 38.0214 29.5313 38.1265L27.0001 40.6465Z" fill="#FFCEBF"/>
<path d="M27.0001 31.084C26.6239 31.084 26.2514 31.1583 25.904 31.3026C25.5566 31.4469 25.241 31.6584 24.9756 31.9249C24.7101 32.1914 24.4998 32.5078 24.3569 32.8558C24.2139 33.2037 24.1411 33.5765 24.1426 33.9527V34.6165C24.1426 35.3743 24.4437 36.1012 24.9795 36.637C25.5154 37.1729 26.2422 37.474 27.0001 37.474C27.758 37.474 28.4848 37.1729 29.0207 36.637C29.5565 36.1012 29.8576 35.3743 29.8576 34.6165V33.9527C29.8591 33.5765 29.7863 33.2037 29.6433 32.8558C29.5004 32.5078 29.2901 32.1914 29.0246 31.9249C28.7592 31.6584 28.4436 31.4469 28.0962 31.3026C27.7488 31.1583 27.3763 31.084 27.0001 31.084Z" fill="#FFB59E"/>
<path d="M27.0001 40.6465L24.4688 38.1152C24.3646 38.0101 24.2821 37.8854 24.2261 37.7484C24.1701 37.6113 24.1417 37.4645 24.1426 37.3165V33.9415C24.1426 33.1836 24.4437 32.4568 24.9795 31.9209C25.5154 31.385 26.2422 31.084 27.0001 31.084C27.3763 31.084 27.7488 31.1583 28.0962 31.3026C28.4436 31.4469 28.7592 31.6584 29.0246 31.9249C29.2901 32.1914 29.5004 32.5078 29.6433 32.8558C29.7863 33.2037 29.8591 33.5765 29.8576 33.9527V37.3277C29.8585 37.4758 29.8301 37.6226 29.7741 37.7596C29.7181 37.8967 29.6356 38.0214 29.5313 38.1265L27.0001 40.6465ZM27.0001 40.6465V45.1915" stroke="#45413C" stroke-width="0.5" stroke-linecap="round" stroke-linejoin="round"/>
<path d="M26.9999 7.77393C29.9299 7.77393 32.7398 8.93786 34.8117 11.0097C36.8835 13.0815 38.0474 15.8914 38.0474 18.8214V24.6039H15.9524V18.8214C15.9524 15.8914 17.1163 13.0815 19.1881 11.0097C21.2599 8.93786 24.0699 7.77393 26.9999 7.77393Z" fill="#A86C4D" stroke="#45413C" stroke-width="0.5" stroke-linecap="round" stroke-linejoin="round"/>
<path d="M39.2288 23.7599C39.1741 23.3468 38.9953 22.96 38.7161 22.6506C38.4369 22.3413 38.0704 22.124 37.665 22.0274L37.0013 21.8474C36.5122 21.7092 36.0821 21.4142 35.7772 21.0076C35.4723 20.6011 35.3095 20.1055 35.3138 19.5974V17.3024C35.3125 16.8384 35.1588 16.3878 34.8762 16.0198C34.5937 15.6519 34.1979 15.387 33.75 15.2661C31.6051 16.1237 29.3095 16.5407 27 16.4924C24.6905 16.5407 22.395 16.1237 20.25 15.2661C19.8 15.3849 19.4018 15.6489 19.1171 16.017C18.8323 16.3852 18.6769 16.837 18.675 17.3024V19.6199C18.6794 20.128 18.5165 20.6236 18.2116 21.0301C17.9067 21.4367 17.4766 21.7317 16.9875 21.8699L16.3238 22.0499C15.9184 22.1465 15.5519 22.3638 15.2727 22.6731C14.9935 22.9825 14.8147 23.3693 14.76 23.7824C14.73 24.0672 14.7603 24.3551 14.8491 24.6274C14.9379 24.8997 15.0831 25.1502 15.2753 25.3625C15.4674 25.5748 15.7022 25.7442 15.9643 25.8597C16.2264 25.9751 16.5099 26.0339 16.7963 26.0324H16.92C17.1833 28.5193 18.3575 30.8208 20.2166 32.4934C22.0757 34.1661 24.488 35.0916 26.9888 35.0916C29.4896 35.0916 31.9019 34.1661 33.761 32.4934C35.62 30.8208 36.7943 28.5193 37.0575 26.0324H37.1813C37.4707 26.0359 37.7576 25.9777 38.0228 25.8617C38.288 25.7456 38.5253 25.5743 38.7191 25.3593C38.9128 25.1442 39.0585 24.8903 39.1464 24.6145C39.2343 24.3387 39.2624 24.0474 39.2288 23.7599Z" fill="#FFCEBF" stroke="#45413C" stroke-width="0.5" stroke-linecap="round" stroke-linejoin="round"/>
<path d="M20.8912 23.5236C20.8912 23.6949 20.942 23.8624 21.0372 24.0048C21.1324 24.1473 21.2677 24.2583 21.4259 24.3239C21.5842 24.3894 21.7584 24.4066 21.9264 24.3732C22.0945 24.3397 22.2488 24.2572 22.37 24.1361C22.4911 24.0149 22.5736 23.8606 22.607 23.6925C22.6405 23.5245 22.6233 23.3503 22.5577 23.1921C22.4922 23.0338 22.3812 22.8985 22.2387 22.8033C22.0962 22.7081 21.9288 22.6573 21.7574 22.6573C21.6433 22.6558 21.5299 22.6772 21.4242 22.7202C21.3184 22.7632 21.2223 22.8269 21.1415 22.9077C21.0608 22.9884 20.997 23.0845 20.954 23.1903C20.911 23.2961 20.8897 23.4094 20.8912 23.5236ZM33.1087 23.5236C33.1087 23.6949 33.0579 23.8624 32.9627 24.0048C32.8675 24.1473 32.7322 24.2583 32.5739 24.3239C32.4157 24.3894 32.2415 24.4066 32.0734 24.3732C31.9054 24.3397 31.7511 24.2572 31.6299 24.1361C31.5088 24.0149 31.4263 23.8606 31.3928 23.6925C31.3594 23.5245 31.3766 23.3503 31.4421 23.1921C31.5077 23.0338 31.6187 22.8985 31.7612 22.8033C31.9036 22.7081 32.0711 22.6573 32.2424 22.6573C32.3566 22.6558 32.4699 22.6772 32.5757 22.7202C32.6815 22.7632 32.7776 22.8269 32.8583 22.9077C32.9391 22.9884 33.0028 23.0845 33.0458 23.1903C33.0888 23.2961 33.1102 23.4094 33.1087 23.5236Z" fill="#45413C" stroke="#45413C" stroke-width="0.5" stroke-linecap="round" stroke-linejoin="round"/>
<path d="M23.805 28.7998C23.7335 28.7998 23.663 28.816 23.5987 28.8471C23.5344 28.8783 23.478 28.9237 23.4338 28.9798C23.3867 29.0328 23.3521 29.0957 23.3326 29.1639C23.3132 29.232 23.3093 29.3037 23.3213 29.3736C23.4732 30.2389 23.9253 31.023 24.5981 31.588C25.2709 32.1531 26.1214 32.4628 27 32.4628C27.8786 32.4628 28.7291 32.1531 29.4019 31.588C30.0747 31.023 30.5269 30.2389 30.6788 29.3736C30.6907 29.3037 30.6869 29.232 30.6674 29.1639C30.6479 29.0957 30.6133 29.0328 30.5663 28.9798C30.521 28.9249 30.4643 28.8803 30.4003 28.8493C30.3362 28.8182 30.2662 28.8013 30.195 28.7998H23.805Z" fill="#FF6242"/>
<path d="M27 30.375C25.9843 30.3353 24.9851 30.6406 24.165 31.2413C24.5195 31.6361 24.9532 31.9518 25.4377 32.1679C25.9223 32.3841 26.447 32.4958 26.9775 32.4958C27.5081 32.4958 28.0328 32.3841 28.5173 32.1679C29.0019 31.9518 29.4355 31.6361 29.79 31.2413C28.9823 30.6503 28.0005 30.3455 27 30.375Z" fill="#FFA694"/>
<path d="M23.805 28.7998C23.7335 28.7998 23.663 28.816 23.5987 28.8471C23.5344 28.8783 23.478 28.9237 23.4338 28.9798C23.3867 29.0328 23.3521 29.0957 23.3326 29.1639C23.3132 29.232 23.3093 29.3037 23.3213 29.3736C23.4732 30.2389 23.9253 31.023 24.5981 31.588C25.2709 32.1531 26.1214 32.4628 27 32.4628C27.8786 32.4628 28.7291 32.1531 29.4019 31.588C30.0747 31.023 30.5269 30.2389 30.6788 29.3736C30.6907 29.3037 30.6869 29.232 30.6674 29.1639C30.6479 29.0957 30.6133 29.0328 30.5663 28.9798C30.521 28.9249 30.4643 28.8803 30.4003 28.8493C30.3362 28.8182 30.2662 28.8013 30.195 28.7998H23.805Z" stroke="#45413C" stroke-width="0.5" stroke-linecap="round" stroke-linejoin="round"/>
<path d="M19.1924 27.2136C19.1924 27.3926 19.3109 27.5643 19.5219 27.6909C19.7329 27.8175 20.019 27.8886 20.3174 27.8886C20.6158 27.8886 20.9019 27.8175 21.1129 27.6909C21.3239 27.5643 21.4424 27.3926 21.4424 27.2136C21.4424 27.0346 21.3239 26.8629 21.1129 26.7363C20.9019 26.6097 20.6158 26.5386 20.3174 26.5386C20.019 26.5386 19.7329 26.6097 19.5219 26.7363C19.3109 26.8629 19.1924 27.0346 19.1924 27.2136ZM32.5574 27.2136C32.5574 27.3926 32.6759 27.5643 32.8869 27.6909C33.0979 27.8175 33.384 27.8886 33.6824 27.8886C33.9808 27.8886 34.2669 27.8175 34.4779 27.6909C34.6889 27.5643 34.8074 27.3926 34.8074 27.2136C34.8074 27.0346 34.6889 26.8629 34.4779 26.7363C34.2669 26.6097 33.9808 26.5386 33.6824 26.5386C33.384 26.5386 33.0979 26.6097 32.8869 26.7363C32.6759 26.8629 32.5574 27.0346 32.5574 27.2136Z" fill="#FFB59E"/>
<path d="M26.9999 4.90479C29.9299 4.90479 32.7398 6.06871 34.8117 8.14052C36.8835 10.2123 38.0474 13.0223 38.0474 15.9523V16.166H15.9524V15.9523C15.9524 13.0223 17.1163 10.2123 19.1881 8.14052C21.2599 6.06871 24.0699 4.90479 26.9999 4.90479Z" fill="#DEBB7E"/>
<path d="M26.9999 4.90479C24.0689 4.90777 21.2589 6.0742 19.1874 8.14779C17.116 10.2214 15.9524 13.0325 15.9524 15.9635V16.166H16.2899C16.8807 13.7716 18.2564 11.6441 20.1977 10.1229C22.1389 8.60176 24.5337 7.77463 26.9999 7.77353C29.4661 7.77463 31.8609 8.60176 33.8021 10.1229C35.7433 11.6441 37.1191 13.7716 37.7099 16.166H38.0474V15.9635C38.0474 13.0325 36.8838 10.2214 34.8123 8.14779C32.7409 6.0742 29.9309 4.90777 26.9999 4.90479Z" fill="#F0D5A8"/>
<path d="M34.8117 8.14052C32.7398 6.06871 29.9299 4.90479 26.9999 4.90479C24.0699 4.90479 21.2599 6.06871 19.1881 8.14052C17.1163 10.2123 15.9524 13.0223 15.9524 15.9523V16.166H38.0474V15.9523C38.0474 13.0223 36.8835 10.2123 34.8117 8.14052Z" stroke="#45413C" stroke-width="0.5" stroke-linecap="round" stroke-linejoin="round"/>
<path d="M27 10.541C15.75 10.541 6.60376 14.0735 6.60376 18.416C6.60376 21.0373 9.91126 23.3435 14.9625 24.7835C14.8461 24.5428 14.7795 24.281 14.7664 24.014C14.7534 23.7469 14.7943 23.4799 14.8867 23.229C14.9791 22.978 15.1211 22.7483 15.3042 22.5534C15.4873 22.3586 15.7078 22.2026 15.9525 22.0948V20.3848C15.9525 18.236 20.9025 16.4923 27 16.4923C33.0975 16.4923 38.0475 18.236 38.0475 20.3848V22.196C38.3533 22.3385 38.6173 22.5571 38.8143 22.8309C39.0113 23.1047 39.1347 23.4246 39.1725 23.7598C39.2031 24.1193 39.1371 24.4805 38.9813 24.806C44.0325 23.366 47.34 21.0598 47.34 18.4385C47.3963 14.0735 38.25 10.541 27 10.541Z" fill="#DEBB7E"/>
<path d="M27 10.541C15.75 10.541 6.60376 14.0735 6.60376 18.416C6.60376 20.5423 8.77501 22.4548 12.285 23.8723C11.7715 23.5626 11.3379 23.1365 11.0194 22.6284C10.7008 22.1203 10.5062 21.5444 10.4513 20.9473C10.4513 17.4035 17.865 14.5348 27 14.5348C36.135 14.5348 43.5488 17.4035 43.5488 20.9473C43.4938 21.5444 43.2992 22.1203 42.9806 22.6284C42.6621 23.1365 42.2286 23.5626 41.715 23.8723C45.225 22.4548 47.3963 20.4973 47.3963 18.416C47.3963 14.0735 38.25 10.541 27 10.541Z" fill="#F0D5A8"/>
<path d="M27 10.541C15.75 10.541 6.60376 14.0735 6.60376 18.416C6.60376 21.0373 9.91126 23.3435 14.9625 24.7835C14.8461 24.5428 14.7795 24.281 14.7664 24.014C14.7534 23.7469 14.7943 23.4799 14.8867 23.229C14.9791 22.978 15.1211 22.7483 15.3042 22.5534C15.4873 22.3586 15.7078 22.2026 15.9525 22.0948V20.3848C15.9525 18.236 20.9025 16.4923 27 16.4923C33.0975 16.4923 38.0475 18.236 38.0475 20.3848V22.196C38.3533 22.3385 38.6173 22.5571 38.8143 22.8309C39.0113 23.1047 39.1347 23.4246 39.1725 23.7598C39.2031 24.1193 39.1371 24.4805 38.9813 24.806C44.0325 23.366 47.34 21.0598 47.34 18.4385C47.3963 14.0735 38.25 10.541 27 10.541Z" stroke="#45413C" stroke-width="0.5" stroke-linecap="round" stroke-linejoin="round"/>
<path d="M42.8513 38.4863H45.4726V50.6251H42.8513V38.4863Z" fill="#BF8256" stroke="#45413C" stroke-width="0.5" stroke-linecap="round" stroke-linejoin="round"/>
<path d="M49.4212 20.6663C49.1437 20.6663 48.8776 20.7765 48.6814 20.9727C48.4852 21.1689 48.3749 21.435 48.3749 21.7125V30.51C48.3749 31.0511 48.1608 31.5702 47.7792 31.9538C47.3977 32.3375 46.8798 32.5545 46.3387 32.5575H45.2137V21.7125C45.2137 21.435 45.1035 21.1689 44.9072 20.9727C44.711 20.7765 44.4449 20.6663 44.1674 20.6663C43.8899 20.6663 43.6238 20.7765 43.4276 20.9727C43.2314 21.1689 43.1212 21.435 43.1212 21.7125V32.5575H41.9962C41.4551 32.5545 40.9372 32.3375 40.5556 31.9538C40.1741 31.5702 39.9599 31.0511 39.9599 30.51V21.7125C39.9599 21.435 39.8497 21.1689 39.6535 20.9727C39.4573 20.7765 39.1912 20.6663 38.9137 20.6663C38.6362 20.6663 38.3701 20.7765 38.1739 20.9727C37.9777 21.1689 37.8674 21.435 37.8674 21.7125V30.15C37.8674 31.3435 38.3415 32.4881 39.1855 33.332C40.0294 34.1759 41.174 34.65 42.3674 34.65H43.1437V38.4863H45.2362V34.65H45.9899C47.1834 34.65 48.328 34.1759 49.1719 33.332C50.0158 32.4881 50.4899 31.3435 50.4899 30.15V21.7125C50.49 21.5732 50.4622 21.4353 50.4082 21.3069C50.3542 21.1784 50.2751 21.0621 50.1756 20.9646C50.076 20.8672 49.958 20.7906 49.8285 20.7393C49.6989 20.6881 49.5605 20.6633 49.4212 20.6663Z" fill="#ADC4D9" stroke="#45413C" stroke-width="0.5" stroke-linecap="round" stroke-linejoin="round"/>
<path d="M41.1187 41.3213C41.5782 41.3213 42.0189 41.5038 42.3438 41.8287C42.6687 42.1536 42.8512 42.5943 42.8512 43.0538V50.625C42.5055 50.625 42.1632 50.5569 41.8438 50.4247C41.5244 50.2924 41.2342 50.0984 40.9898 49.854C40.7453 49.6095 40.5514 49.3193 40.4191 49C40.2868 48.6806 40.2188 48.3382 40.2188 47.9925V42.21C40.2188 41.9743 40.3124 41.7483 40.4791 41.5816C40.6457 41.4149 40.8718 41.3213 41.1075 41.3213H41.1187Z" fill="#FFCEBF"/>
<path d="M41.1187 41.3213C40.883 41.3213 40.657 41.4149 40.4903 41.5816C40.3236 41.7483 40.23 41.9743 40.23 42.21V44.37C40.23 44.1343 40.3236 43.9083 40.4903 43.7416C40.657 43.5749 40.883 43.4813 41.1187 43.4813C41.5782 43.4813 42.0189 43.6638 42.3438 43.9887C42.6687 44.3136 42.8512 44.7543 42.8512 45.2138V43.0538C42.8512 42.5943 42.6687 42.1536 42.3438 41.8287C42.0189 41.5038 41.5782 41.3213 41.1187 41.3213Z" fill="#FFDCD1"/>
<path d="M41.1187 41.3213C41.5782 41.3213 42.0189 41.5038 42.3438 41.8287C42.6687 42.1536 42.8512 42.5943 42.8512 43.0538V50.625C42.5055 50.625 42.1632 50.5569 41.8438 50.4247C41.5244 50.2924 41.2342 50.0984 40.9898 49.854C40.7453 49.6095 40.5514 49.3193 40.4191 49C40.2868 48.6806 40.2188 48.3382 40.2188 47.9925V42.21C40.2188 41.9743 40.3124 41.7483 40.4791 41.5816C40.6457 41.4149 40.8718 41.3213 41.1075 41.3213H41.1187Z" stroke="#45413C" stroke-width="0.5" stroke-linecap="round" stroke-linejoin="round"/>
<path d="M45.7651 42.8735H43.5151C43.1926 42.894 42.8895 43.0344 42.6653 43.267C42.4411 43.4997 42.3121 43.8078 42.3037 44.1308C42.2952 44.4538 42.4079 44.7683 42.6196 45.0123C42.8313 45.2564 43.1266 45.4125 43.4476 45.4498C43.1266 45.4871 42.8313 45.6431 42.6196 45.8872C42.4079 46.1313 42.2952 46.4458 42.3037 46.7688C42.3121 47.0917 42.4411 47.3999 42.6653 47.6325C42.8895 47.8652 43.1926 48.0056 43.5151 48.026C43.1913 48.0562 42.8905 48.2061 42.6715 48.4465C42.4525 48.6868 42.3311 49.0003 42.3311 49.3254C42.3311 49.6506 42.4525 49.964 42.6715 50.2044C42.8905 50.4447 43.1913 50.5946 43.5151 50.6248H45.7651C46.4185 50.6248 47.0452 50.3652 47.5072 49.9032C47.9693 49.4411 48.2288 48.8145 48.2288 48.161V45.3373C48.2288 44.6839 47.9693 44.0572 47.5072 43.5951C47.0452 43.1331 46.4185 42.8735 45.7651 42.8735Z" fill="#FFCEBF"/>
<path d="M45.7649 42.8738H43.5149C43.1718 42.8738 42.8428 43.0101 42.6001 43.2527C42.3575 43.4953 42.2212 43.8244 42.2212 44.1675C42.2299 44.3956 42.2999 44.6171 42.4237 44.8088C42.5351 44.6088 42.6984 44.4426 42.8964 44.3278C43.0944 44.2129 43.3198 44.1537 43.5487 44.1563H45.7987C46.4521 44.1563 47.0788 44.4158 47.5408 44.8779C48.0029 45.3399 48.2624 45.9666 48.2624 46.62V45.3375C48.2625 45.0111 48.1976 44.688 48.0717 44.3868C47.9458 44.0857 47.7613 43.8126 47.5289 43.5833C47.2966 43.3541 47.021 43.1733 46.7181 43.0515C46.4153 42.9297 46.0913 42.8693 45.7649 42.8738Z" fill="#FFDCD1"/>
<path d="M43.4476 45.4498C43.1266 45.4125 42.8313 45.2564 42.6196 45.0123C42.4079 44.7683 42.2952 44.4538 42.3037 44.1308C42.3121 43.8078 42.4411 43.4997 42.6653 43.267C42.8895 43.0344 43.1926 42.894 43.5151 42.8735H45.7651C46.4185 42.8735 47.0452 43.1331 47.5072 43.5951C47.9693 44.0572 48.2288 44.6839 48.2288 45.3373V48.161C48.2288 48.8145 47.9693 49.4411 47.5072 49.9032C47.0452 50.3652 46.4185 50.6248 45.7651 50.6248H43.5151C43.1913 50.5946 42.8905 50.4447 42.6715 50.2044C42.4525 49.964 42.3311 49.6506 42.3311 49.3254C42.3311 49.0003 42.4525 48.6868 42.6715 48.4465C42.8905 48.2061 43.1913 48.0562 43.5151 48.026M43.4476 45.4498C43.1266 45.4871 42.8313 45.6431 42.6196 45.8872C42.4079 46.1313 42.2952 46.4458 42.3037 46.7688C42.3121 47.0917 42.4411 47.3999 42.6653 47.6325C42.8895 47.8652 43.1926 48.0056 43.5151 48.026M43.4476 45.4498H45.2251M43.5151 48.026H45.2251" stroke="#45413C" stroke-width="0.5" stroke-linecap="round" stroke-linejoin="round"/>
</svg>
