<svg width="40" height="40" viewBox="0 0 40 40" fill="none" xmlns="http://www.w3.org/2000/svg">
<path d="M19.9999 3.3335C29.2049 3.3335 36.6666 10.7952 36.6666 20.0002C36.6666 29.2052 29.2049 36.6668 19.9999 36.6668C16.9635 36.6716 13.9842 35.8425 11.3866 34.2702L6.33327 35.7568C6.04313 35.8422 5.73535 35.8478 5.44229 35.7731C5.14923 35.6984 4.88172 35.5461 4.66786 35.3322C4.45401 35.1184 4.30172 34.8509 4.22701 34.5578C4.15229 34.2647 4.15791 33.957 4.24327 33.6668L5.72993 28.6135C4.15835 26.0156 3.3294 23.0364 3.33327 20.0002C3.33327 10.7952 10.7949 3.3335 19.9999 3.3335ZM19.9999 6.66683C17.6126 6.6664 15.269 7.30692 13.2138 8.52152C11.1586 9.73612 9.46719 11.4802 8.3162 13.5717C7.16521 15.6632 6.59687 18.0254 6.67053 20.4115C6.74418 22.7977 7.45714 25.1203 8.73493 27.1368C9.11327 27.7318 9.24327 28.4818 9.02993 29.2035L8.29493 31.7052L10.7966 30.9702C11.5183 30.7568 12.2683 30.8868 12.8633 31.2652C14.6105 32.3715 16.5911 33.0562 18.6485 33.2652C20.7059 33.4742 22.7838 33.2018 24.7178 32.4695C26.6518 31.7371 28.3889 30.565 29.7919 29.0456C31.1948 27.5263 32.2252 25.7014 32.8014 23.7153C33.3776 21.7292 33.484 19.6363 33.112 17.602C32.74 15.5677 31.9 13.6478 30.6582 11.9941C29.4165 10.3404 27.8071 8.99822 25.9573 8.07363C24.1075 7.14905 22.0679 6.66742 19.9999 6.66683ZM14.1666 17.5002C14.8296 17.5002 15.4655 17.7636 15.9344 18.2324C16.4032 18.7012 16.6666 19.3371 16.6666 20.0002C16.6666 20.6632 16.4032 21.2991 15.9344 21.7679C15.4655 22.2368 14.8296 22.5002 14.1666 22.5002C13.5036 22.5002 12.8677 22.2368 12.3988 21.7679C11.93 21.2991 11.6666 20.6632 11.6666 20.0002C11.6666 19.3371 11.93 18.7012 12.3988 18.2324C12.8677 17.7636 13.5036 17.5002 14.1666 17.5002ZM25.8333 17.5002C26.4963 17.5002 27.1322 17.7636 27.601 18.2324C28.0699 18.7012 28.3333 19.3371 28.3333 20.0002C28.3333 20.6632 28.0699 21.2991 27.601 21.7679C27.1322 22.2368 26.4963 22.5002 25.8333 22.5002C25.1702 22.5002 24.5343 22.2368 24.0655 21.7679C23.5967 21.2991 23.3333 20.6632 23.3333 20.0002C23.3333 19.3371 23.5967 18.7012 24.0655 18.2324C24.5343 17.7636 25.1702 17.5002 25.8333 17.5002Z" fill="#96C470"/>
</svg>
