<svg width="40" height="40" viewBox="0 0 40 40" fill="none" xmlns="http://www.w3.org/2000/svg">
<path fill-rule="evenodd" clip-rule="evenodd" d="M18.5861 4.58606C18.9611 4.21112 19.4697 4.00049 20.0001 4.00049C20.5304 4.00049 21.039 4.21112 21.4141 4.58606L35.4141 18.5861C35.6937 18.8658 35.8841 19.2221 35.9612 19.61C36.0384 19.9979 35.9988 20.4 35.8474 20.7654C35.6961 21.1308 35.4398 21.4431 35.111 21.6629C34.7822 21.8826 34.3956 22 34.0001 22.0001H32.0001V34.0001C32.0001 34.5305 31.7893 35.0392 31.4143 35.4143C31.0392 35.7893 30.5305 36.0001 30.0001 36.0001H26.0001C25.4696 36.0001 24.9609 35.7893 24.5858 35.4143C24.2108 35.0392 24.0001 34.5305 24.0001 34.0001V28.0001C24.0001 27.4696 23.7893 26.9609 23.4143 26.5858C23.0392 26.2108 22.5305 26.0001 22.0001 26.0001H18.0001C17.4696 26.0001 16.9609 26.2108 16.5858 26.5858C16.2108 26.9609 16.0001 27.4696 16.0001 28.0001V34.0001C16.0001 34.5305 15.7893 35.0392 15.4143 35.4143C15.0392 35.7893 14.5305 36.0001 14.0001 36.0001H10.0001C9.46963 36.0001 8.96092 35.7893 8.58585 35.4143C8.21078 35.0392 8.00006 34.5305 8.00006 34.0001V22.0001H6.00006C5.60456 22 5.21796 21.8826 4.88915 21.6629C4.56033 21.4431 4.30405 21.1308 4.15271 20.7654C4.00137 20.4 3.96176 19.9979 4.0389 19.61C4.11603 19.2221 4.30644 18.8658 4.58606 18.5861L18.5861 4.58606Z" fill="#96C470"/>
</svg>
