<svg width="40" height="40" viewBox="0 0 40 40" fill="none" xmlns="http://www.w3.org/2000/svg">
<path d="M18.2666 35C17.8788 35 17.5427 34.8728 17.2583 34.6183C16.9727 34.3639 16.7955 34.0467 16.7266 33.6667L16.2883 30.18C15.7561 30.0189 15.1805 29.7667 14.5616 29.4233C13.9438 29.0789 13.4177 28.71 12.9833 28.3167L9.79162 29.69C9.4394 29.8456 9.08162 29.8622 8.71829 29.74C8.35495 29.6178 8.07495 29.3872 7.87829 29.0483L6.07995 25.95C5.88329 25.6111 5.82551 25.2567 5.90662 24.8867C5.98773 24.5167 6.18106 24.2133 6.48662 23.9767L9.27329 21.8933C9.22329 21.5911 9.18273 21.2806 9.15162 20.9617C9.11829 20.6417 9.10162 20.3311 9.10162 20.03C9.10162 19.75 9.11829 19.4556 9.15162 19.1467C9.18273 18.8378 9.22329 18.49 9.27329 18.1033L6.48662 16.02C6.18106 15.7833 5.99329 15.475 5.92329 15.095C5.85329 14.715 5.91607 14.355 6.11162 14.015L7.87829 11.015C8.07495 10.6961 8.35495 10.4706 8.71829 10.3383C9.08162 10.2061 9.4394 10.2178 9.79162 10.3733L12.9516 11.7133C13.4494 11.2989 13.9883 10.925 14.5683 10.5917C15.1461 10.2583 15.7088 10.0006 16.2566 9.81834L16.7283 6.33167C16.7961 5.95167 16.9727 5.63445 17.2583 5.38001C17.5438 5.12556 17.88 4.9989 18.2666 5.00001H21.7333C22.1211 5.00001 22.4572 5.12723 22.7416 5.38167C23.0272 5.63612 23.2044 5.95334 23.2733 6.33334L23.7116 9.85334C24.3505 10.0778 24.915 10.335 25.405 10.625C25.895 10.915 26.4 11.2783 26.92 11.715L30.24 10.375C30.5933 10.2195 30.9516 10.2078 31.315 10.34C31.6783 10.4722 31.9577 10.6978 32.1533 11.0167L33.92 14.0483C34.1166 14.3883 34.1744 14.7428 34.0933 15.1117C34.0122 15.4806 33.8188 15.7845 33.5133 16.0233L30.6 18.2C30.6911 18.5445 30.7422 18.8606 30.7533 19.1483C30.7644 19.4361 30.77 19.7195 30.77 19.9983C30.77 20.2572 30.7588 20.53 30.7366 20.8167C30.7155 21.1045 30.6666 21.4522 30.59 21.86L33.4066 23.9767C33.7122 24.2133 33.9111 24.5167 34.0033 24.8867C34.0955 25.2567 34.0433 25.6111 33.8466 25.95L32.07 29.015C31.8744 29.355 31.5894 29.5856 31.215 29.7067C30.8405 29.8289 30.4772 29.8122 30.125 29.6567L26.92 28.2833C26.4011 28.72 25.8788 29.0939 25.3533 29.405C24.8277 29.7161 24.2805 29.9633 23.7116 30.1467L23.2716 33.665C23.2038 34.045 23.0272 34.3622 22.7416 34.6167C22.4561 34.8711 22.12 34.9989 21.7333 35H18.2666ZM19.955 24.1667C21.1172 24.1667 22.1022 23.7628 22.91 22.955C23.7177 22.1472 24.1216 21.1622 24.1216 20C24.1216 18.8378 23.7177 17.8528 22.91 17.045C22.1022 16.2372 21.1172 15.8333 19.955 15.8333C18.7861 15.8333 17.7994 16.2372 16.995 17.045C16.1905 17.8528 15.7883 18.8378 15.7883 20C15.7883 21.1622 16.1905 22.1472 16.995 22.955C17.7994 23.7628 18.7861 24.1667 19.955 24.1667Z" fill="#96C470"/>
</svg>
