<svg width="24" height="24" viewBox="0 0 24 24" fill="none" xmlns="http://www.w3.org/2000/svg">
<path d="M10.154 13.9999H7.169C6.89767 13.9999 6.701 13.8816 6.579 13.6449C6.457 13.4082 6.475 13.1812 6.633 12.9639L12.262 4.8089C12.364 4.66557 12.4907 4.57057 12.642 4.5239C12.7933 4.47723 12.9533 4.48457 13.122 4.5459C13.2907 4.60723 13.4123 4.70857 13.487 4.8499C13.5617 4.99123 13.589 5.14557 13.569 5.3129L12.866 10.9999H16.452C16.732 10.9999 16.9303 11.1276 17.047 11.3829C17.1643 11.6382 17.1327 11.8749 16.952 12.0929L10.688 19.5959C10.5813 19.7226 10.4527 19.8036 10.302 19.8389C10.1507 19.8736 10.0013 19.8579 9.854 19.7919C9.70667 19.7266 9.594 19.6276 9.516 19.4949C9.43867 19.3622 9.41034 19.2122 9.431 19.0449L10.154 13.9999Z" fill="#FFD153"/>
</svg>
