<svg width="27" height="27" viewBox="0 0 27 27" fill="none" xmlns="http://www.w3.org/2000/svg">
<path d="M19.9332 10.6003C20.0416 10.4558 20.1076 10.2839 20.1239 10.104C20.1402 9.92414 20.1062 9.74325 20.0256 9.5816C19.9449 9.41995 19.8209 9.28392 19.6674 9.18873C19.5139 9.09353 19.3369 9.04293 19.1563 9.04257L3.91799 9.02732C3.72902 9.02708 3.54406 9.08184 3.38569 9.18492C3.22731 9.288 3.10235 9.43494 3.02606 9.60783C2.94977 9.78071 2.92544 9.97206 2.95605 10.1585C2.98665 10.345 3.07087 10.5185 3.19841 10.658L6.61589 14.393C6.75877 14.5491 6.94861 14.6544 7.15667 14.693C7.36474 14.7315 7.57969 14.7012 7.769 14.6067L11.7512 12.6205C11.9823 12.5053 12.2497 12.4865 12.4945 12.5684C12.7394 12.6503 12.9417 12.8261 13.0569 13.0572C13.1722 13.2883 13.1909 13.5556 13.109 13.8005C13.0271 14.0454 12.8513 14.2477 12.6202 14.3629L8.63802 16.349C8.4486 16.4434 8.29509 16.5969 8.2007 16.7863C8.10632 16.9756 8.07622 17.1906 8.11495 17.3987L9.04342 22.3751C9.07795 22.5609 9.16578 22.7326 9.29621 22.8693C9.42664 23.006 9.59403 23.1018 9.77797 23.145C9.9619 23.1882 10.1544 23.1769 10.3321 23.1126C10.5097 23.0482 10.6648 22.9336 10.7784 22.7826L19.9332 10.6003Z" fill="white"/>
</svg>
